<?xml version="1.0" standalone="no"?>
<!DOCTYPE svg PUBLIC "-//W3C//DTD SVG 20010904//EN"
 "http://www.w3.org/TR/2001/REC-SVG-20010904/DTD/svg10.dtd">
<svg version="1.0" xmlns="http://www.w3.org/2000/svg"
 width="1154.000000pt" height="1280.000000pt" viewBox="0 0 1154.000000 1280.000000"
 preserveAspectRatio="xMidYMid meet">
<metadata>
Created by potrace 1.15, written by Peter Selinger 2001-2017
</metadata>
<g transform="translate(0.000000,1280.000000) scale(0.100000,-0.100000)"
fill="#7AC751" stroke="none">
<path d="M2600 12790 c0 -5 -17 -12 -37 -15 -67 -9 -187 -37 -228 -51 -23 -8
-47 -14 -54 -14 -7 0 -27 -6 -44 -14 -18 -7 -57 -23 -87 -35 -107 -42 -244
-120 -317 -178 -125 -100 -259 -267 -308 -382 -14 -34 -30 -70 -34 -80 -21
-40 -36 -80 -47 -126 -7 -27 -19 -79 -28 -115 -59 -237 -80 -753 -46 -1150 6
-63 15 -169 20 -235 18 -215 50 -505 71 -637 6 -37 14 -104 19 -150 5 -46 14
-117 19 -158 33 -230 41 -289 44 -325 3 -22 10 -76 16 -120 7 -44 18 -123 26
-175 8 -52 19 -126 25 -165 37 -245 36 -264 -19 -265 -22 0 -124 -20 -206 -41
-22 -6 -56 -14 -75 -18 -91 -22 -167 -43 -190 -53 -14 -5 -38 -16 -55 -23 -16
-8 -50 -22 -75 -33 -25 -10 -65 -27 -90 -37 -202 -86 -430 -282 -565 -486 -45
-68 -145 -256 -145 -272 0 -5 -6 -23 -14 -40 -22 -50 -58 -169 -96 -314 -6
-23 -15 -72 -20 -110 -5 -37 -14 -88 -19 -113 -6 -25 -10 -74 -11 -110 0 -36
-7 -92 -15 -123 -12 -48 -15 -141 -15 -517 0 -262 4 -461 9 -464 5 -3 12 -59
15 -123 7 -138 32 -452 48 -603 6 -58 12 -127 14 -155 2 -27 11 -108 19 -180
8 -71 20 -170 25 -220 6 -49 17 -146 26 -215 8 -69 21 -177 29 -240 8 -63 21
-167 29 -230 8 -63 19 -153 25 -200 19 -147 41 -312 52 -390 6 -41 15 -111 19
-155 4 -44 13 -118 19 -165 15 -120 58 -505 82 -735 6 -60 14 -171 19 -245 4
-74 13 -193 19 -265 22 -268 35 -583 40 -1015 l6 -445 60 -5 c57 -5 60 -7 63
-33 l3 -27 1827 2 c1005 2 2096 6 2425 9 345 4 600 3 603 -2 5 -9 1226 -13
1235 -5 6 6 727 13 2346 22 1153 7 1243 6 1249 -9 8 -21 34 -22 34 -2 0 13 32
15 229 15 l230 0 3 48 3 47 81 1 c87 1 104 6 104 33 0 9 4 21 10 27 5 5 12 94
14 197 3 112 9 193 15 201 6 8 13 88 16 196 3 112 9 188 16 196 7 8 13 85 16
201 3 144 8 192 19 204 10 12 14 45 14 131 0 94 3 117 15 122 12 4 15 29 15
136 0 107 3 132 15 136 12 5 15 30 15 139 0 109 3 134 15 139 12 4 15 29 15
134 0 103 3 132 15 142 12 10 15 37 15 127 0 92 3 115 15 119 12 5 15 28 15
119 0 88 3 115 15 125 11 10 15 36 15 112 0 78 3 100 15 104 12 5 15 28 15
117 0 88 3 114 16 128 13 15 16 39 15 122 -2 85 1 108 14 121 13 13 17 39 18
124 1 72 6 114 15 124 8 11 14 58 16 144 2 94 7 130 17 138 10 8 15 42 16 125
2 70 7 117 14 122 7 4 13 65 16 165 3 110 8 163 17 174 9 10 14 57 15 155 2
109 5 142 16 151 13 10 15 128 15 852 0 489 -4 843 -9 846 -5 3 -12 34 -15 68
-8 79 -33 218 -51 283 -29 110 -58 200 -66 210 -5 5 -9 15 -9 23 0 8 -16 48
-35 89 -19 41 -35 77 -35 79 0 10 -69 116 -119 184 -60 80 -208 230 -228 230
-6 0 -13 4 -15 8 -9 25 -171 117 -273 155 -22 9 -71 28 -110 43 -38 15 -99 33
-135 40 -234 46 -241 49 -298 93 -50 39 -123 55 -186 41 -70 -15 -79 -5 -72
84 3 39 10 159 16 266 13 255 47 651 81 960 6 52 15 145 20 205 5 61 14 134
19 164 6 30 10 77 10 105 0 28 6 114 15 191 58 542 54 1182 -9 1490 -26 124
-56 224 -82 277 -8 14 -14 31 -14 38 0 7 -14 32 -30 57 -17 24 -30 46 -30 48
0 3 -23 38 -51 80 -67 98 -188 215 -275 267 -38 23 -71 45 -74 48 -5 7 -51 29
-140 66 -19 8 -43 19 -52 24 -10 6 -34 14 -55 19 -21 6 -69 19 -108 31 -38 11
-95 24 -125 29 -30 4 -56 13 -58 20 -5 14 -6342 16 -6342 1z"/>
</g>
</svg>
