<?xml version="1.0" standalone="no"?>
<!DOCTYPE svg PUBLIC "-//W3C//DTD SVG 20010904//EN"
 "http://www.w3.org/TR/2001/REC-SVG-20010904/DTD/svg10.dtd">
<svg version="1.0" xmlns="http://www.w3.org/2000/svg"
 width="1156.000000pt" height="1280.000000pt" viewBox="0 0 1156.000000 1280.000000"
 preserveAspectRatio="xMidYMid meet">
<metadata>
Created by potrace 1.15, written by Peter Selinger 2001-2017
</metadata>
<g transform="translate(0.000000,1280.000000) scale(0.100000,-0.100000)"
fill="#7AC751" stroke="#7AC751">
<path d="M7360 12794 c-796 -40 -1450 -193 -1757 -411 -87 -61 -240 -233 -335
-377 -86 -130 -288 -528 -363 -716 -155 -384 -229 -640 -324 -1115 -46 -229
-63 -320 -120 -655 -65 -387 -171 -1096 -222 -1493 -11 -82 -15 -97 -28 -91
-126 52 -412 139 -595 179 -459 102 -1298 99 -1801 -6 -576 -120 -931 -356
-1218 -809 -256 -402 -490 -1117 -562 -1713 -87 -726 0 -1701 210 -2357 68
-213 335 -890 453 -1149 l20 -44 -23 -31 c-33 -44 -40 -94 -20 -142 11 -24 17
-61 16 -96 -2 -62 16 -110 49 -131 15 -9 20 -23 20 -54 0 -54 34 -84 124 -108
75 -20 163 -16 251 11 l54 17 35 -31 c100 -88 281 -166 514 -223 90 -22 209
-56 265 -75 162 -56 182 -61 382 -93 491 -80 630 -103 630 -104 3 -43 223
-261 385 -382 406 -302 953 -494 1595 -559 465 -47 1114 -46 1615 5 299 30
723 109 878 163 24 9 45 10 61 4 43 -16 255 -67 322 -77 248 -40 421 -33 529
21 87 44 104 78 105 205 l0 92 70 57 c199 163 845 850 1217 1294 264 315 428
582 581 951 133 320 158 442 222 1094 14 143 45 440 70 660 24 220 51 472 60
560 9 88 20 194 25 235 4 41 21 221 36 399 21 252 25 327 16 342 -20 31 -14
46 19 53 41 8 92 62 107 113 7 22 12 75 12 116 0 84 -16 132 -61 182 -15 17
-47 64 -70 105 -23 41 -73 123 -110 182 -38 59 -69 116 -69 127 0 11 16 32 35
47 32 24 35 31 35 75 0 46 2 49 25 49 29 0 45 30 45 85 0 19 5 37 11 41 8 4 9
26 5 64 -6 49 -2 74 28 166 96 302 184 620 341 1239 100 394 129 523 189 840
115 611 196 1172 212 1470 19 339 -97 761 -284 1037 -104 153 -272 284 -517
404 -262 127 -395 166 -755 218 -379 56 -798 95 -1290 121 -267 14 -1184 27
-1350 19z m1210 -59 c311 -14 350 -17 605 -36 455 -34 1014 -109 1192 -160
281 -81 579 -236 745 -389 147 -134 297 -428 354 -695 60 -279 59 -447 -6
-945 -48 -367 -162 -1020 -235 -1349 -61 -273 -289 -1147 -380 -1456 -50 -171
-97 -320 -105 -335 -8 -13 -9 -13 -15 2 -4 9 9 65 28 125 38 116 83 271 116
393 11 41 42 156 70 255 68 249 203 779 245 965 131 579 257 1361 296 1837 35
427 -135 948 -387 1183 -177 166 -523 337 -832 410 -140 34 -522 86 -831 115
-333 30 -389 35 -575 45 -801 43 -1533 40 -1940 -10 -265 -32 -395 -54 -625
-105 -272 -61 -490 -142 -660 -246 l-35 -21 30 27 c42 37 251 137 375 180 288
99 700 173 1200 214 178 14 1028 12 1370 -4z m115 -40 c378 -19 734 -48 1040
-84 147 -18 440 -61 475 -70 19 -5 75 -19 124 -32 268 -66 595 -233 759 -388
224 -212 386 -646 387 -1037 0 -226 -46 -602 -146 -1184 -93 -543 -158 -839
-330 -1500 -100 -383 -274 -989 -289 -1008 -2 -2 -28 11 -58 28 l-54 30 44
143 c125 403 402 1477 468 1817 120 616 207 1188 234 1537 17 209 -7 405 -75
611 -91 280 -220 462 -417 590 -92 59 -310 162 -425 201 -98 33 -232 65 -240
57 -2 -3 9 -8 24 -12 366 -83 710 -264 850 -447 165 -217 273 -558 274 -862 0
-202 -52 -630 -135 -1110 -45 -258 -54 -309 -85 -470 -60 -307 -70 -354 -170
-749 -122 -483 -268 -1014 -336 -1227 -21 -66 -28 -76 -45 -72 -29 8 -30 16
-10 79 115 353 405 1463 480 1839 159 793 262 1537 247 1775 -17 258 -105 530
-234 722 -84 125 -192 209 -406 316 -158 80 -424 165 -468 150 -7 -3 -44 8
-83 24 -345 142 -1138 244 -2173 279 -329 11 -1145 6 -1257 -7 -27 -3 -48 -4
-44 0 15 16 502 65 794 80 152 8 1006 -5 1280 -19z m-400 -100 c446 -25 806
-60 1165 -111 275 -40 447 -81 640 -157 79 -31 100 -42 85 -47 -15 -6 -8 -9
28 -15 111 -17 347 -201 430 -334 20 -34 33 -61 28 -61 -6 0 -13 5 -16 10 -3
6 -12 10 -18 10 -7 0 5 -15 26 -33 44 -38 62 -97 99 -329 21 -128 23 -177 23
-473 0 -265 -4 -351 -18 -435 -30 -181 -55 -345 -107 -680 -50 -321 -96 -616
-126 -800 -36 -226 -93 -449 -229 -895 -82 -269 -239 -730 -255 -748 -3 -4
-33 4 -65 18 -130 58 -215 73 -454 80 -70 3 -169 7 -221 11 -53 3 -114 1 -139
-4 -39 -9 -47 -8 -73 11 -28 20 -41 22 -171 21 -100 -1 -155 -6 -187 -17 -25
-9 -83 -25 -130 -37 -106 -27 -253 -82 -328 -122 -147 -80 -306 -220 -417
-370 l-20 -27 -130 38 c-319 94 -882 193 -1425 251 -107 12 -198 22 -202 23
-5 1 16 28 45 61 l52 58 190 -21 c650 -73 1200 -183 1473 -294 34 -14 62 -22
62 -17 0 18 -209 88 -400 135 -265 65 -680 136 -1020 175 -102 12 -211 25
-242 28 l-57 7 42 58 42 58 70 -6 c135 -11 402 -46 610 -80 365 -59 598 -114
810 -191 14 -5 17 -4 10 3 -40 42 -514 157 -855 208 -202 30 -318 45 -460 61
-91 10 -166 19 -168 20 -2 1 11 28 29 60 18 33 33 60 33 61 3 6 494 -57 606
-77 30 -6 117 -21 193 -35 159 -28 357 -75 440 -104 31 -11 57 -16 57 -12 0 9
-163 58 -300 90 -177 42 -557 102 -893 142 -84 10 -97 14 -92 28 4 9 14 35 22
59 14 40 17 42 54 42 143 0 789 -104 998 -161 40 -11 76 -17 79 -15 6 7 0 8
-103 35 -193 49 -577 114 -835 140 -58 6 -121 14 -140 17 l-35 5 3 63 4 64 36
-4 c392 -42 687 -84 837 -120 33 -7 69 -13 80 -13 30 2 -115 36 -245 59 -171
29 -304 47 -515 71 -183 20 -204 26 -205 57 0 7 -9 31 -21 54 l-21 41 89 -7
c91 -7 348 -32 418 -41 75 -9 330 -46 360 -51 20 -4 27 -3 20 4 -16 15 -396
66 -695 92 -69 6 -142 12 -162 14 -25 3 -52 17 -85 44 -26 22 -120 78 -208
125 -88 46 -240 128 -338 181 -375 206 -519 238 -627 140 -45 -41 -81 -110
-104 -202 -22 -85 -49 -343 -43 -417 4 -58 -1 -74 -144 -445 -374 -974 -430
-1116 -445 -1127 -10 -7 -14 -19 -10 -29 6 -15 17 -16 91 -10 98 7 278 52 388
95 70 28 88 31 185 31 167 -1 608 -27 756 -46 l48 -6 -43 -20 c-24 -11 -80
-33 -124 -50 -76 -28 -85 -30 -185 -24 -58 3 -197 11 -310 17 -208 11 -536 6
-600 -10 -49 -13 -25 -13 154 0 114 8 221 8 389 0 354 -17 400 -21 380 -36 -9
-7 -14 -19 -10 -28 4 -12 17 -14 64 -10 32 2 141 -5 243 -16 102 -11 253 -28
335 -38 109 -12 153 -21 162 -32 10 -14 14 -14 45 2 18 9 41 22 50 29 20 14
249 -16 678 -89 146 -25 280 -48 298 -50 17 -3 32 -10 32 -15 0 -15 -41 -148
-46 -148 -2 0 -48 7 -102 15 -89 13 -232 30 -707 85 -270 31 -720 78 -970 100
-321 28 -484 45 -835 86 -270 31 -349 36 -685 44 -209 5 -381 7 -383 5 -2 -2
23 -7 55 -11 l58 -7 -60 -12 c-33 -7 -73 -15 -88 -20 -26 -7 -22 0 42 81 110
136 265 395 383 639 l49 100 -6 -55 c-2 -30 -5 -72 -5 -92 0 -34 -3 -38 -27
-39 l-28 -2 28 -4 c29 -5 32 -10 18 -32 -5 -8 -19 -12 -35 -9 -14 3 -26 1 -26
-3 0 -5 14 -9 30 -9 24 0 30 -4 30 -21 0 -20 -4 -21 -45 -16 -27 4 -45 3 -45
-3 0 -6 20 -10 45 -10 39 0 45 -3 45 -20 0 -20 -4 -21 -60 -14 -42 5 -60 3
-60 -5 0 -7 22 -11 61 -11 52 0 60 -2 57 -17 -3 -16 -13 -18 -71 -15 -44 3
-67 0 -67 -7 0 -7 25 -11 65 -11 55 0 65 -3 65 -17 0 -16 -10 -18 -87 -16 -59
1 -80 -1 -63 -7 14 -4 53 -8 88 -9 53 -1 63 -4 60 -17 -3 -14 -17 -17 -98 -16
-113 1 -108 -4 11 -13 64 -5 86 -10 86 -21 0 -11 -22 -14 -111 -15 -130 -1
-128 -5 7 -14 73 -5 97 -10 97 -21 0 -11 -25 -14 -127 -16 -71 -1 -103 -3 -73
-5 153 -8 200 -15 200 -29 0 -11 -28 -14 -147 -16 l-148 -2 120 -6 c66 -4 132
-8 148 -9 18 -1 27 -7 27 -17 0 -15 -16 -16 -160 -12 -88 3 -163 1 -166 -3 -3
-5 55 -9 129 -9 155 0 197 -6 197 -28 0 -13 -23 -14 -182 -9 -101 3 -174 2
-163 -3 11 -4 100 -10 198 -12 l177 -6 0 77 c0 42 9 204 20 361 11 157 20 324
20 372 0 48 4 90 10 93 5 3 7 18 4 33 -3 17 19 94 62 217 120 347 143 420 173
556 43 196 94 501 146 880 50 362 56 394 86 485 34 106 14 100 394 113 1268
44 2409 44 2870 0 252 -23 425 -50 1025 -155 188 -34 224 -37 440 -40 246 -5
353 -16 520 -59 229 -57 449 -153 512 -223 19 -21 38 -45 40 -53 4 -11 8 -11
18 -2 18 16 -20 72 -75 112 -128 91 -427 196 -681 236 -55 9 -187 17 -331 19
-226 4 -250 6 -468 45 -337 60 -624 107 -760 125 -533 69 -1473 81 -2790 36
-159 -6 -375 -11 -480 -12 l-189 -3 -15 30 c-11 23 -12 41 -4 85 6 30 103 426
217 880 204 811 284 1091 358 1250 38 82 127 222 183 287 35 41 133 124 106
90 -7 -9 -9 -17 -4 -17 5 0 19 14 32 31 56 76 254 186 452 252 201 67 468 115
759 137 176 13 1224 3 1535 -15z m2114 -342 c187 -62 361 -153 491 -258 187
-150 335 -508 356 -865 15 -235 -122 -1169 -276 -1890 -56 -264 -274 -1100
-386 -1485 -62 -212 -85 -275 -100 -275 -17 0 -18 -5 5 66 101 311 348 1237
440 1649 116 516 233 1234 282 1725 40 405 -117 883 -351 1063 -110 85 -268
170 -410 221 -92 33 -227 98 -185 90 17 -4 77 -22 134 -41z m116 -88 c153 -64
306 -158 384 -235 201 -200 334 -628 301 -975 -38 -406 -108 -872 -216 -1435
-64 -332 -173 -781 -315 -1300 -22 -80 -49 -179 -60 -220 -30 -112 -76 -271
-116 -398 l-35 -113 -41 6 c-23 4 -45 10 -48 14 -4 3 4 40 17 81 104 322 378
1358 453 1710 153 725 284 1631 266 1848 -19 241 -100 477 -222 650 -42 60
-115 125 -182 165 -52 30 -35 11 33 -37 149 -106 248 -274 318 -536 56 -212
50 -420 -27 -963 -53 -371 -163 -978 -226 -1247 -166 -706 -435 -1670 -465
-1670 -8 0 -12 6 -9 13 2 6 17 55 34 107 122 382 390 1414 466 1794 135 677
245 1422 245 1667 0 151 -60 400 -131 541 -66 132 -121 199 -222 274 -32 24
-78 69 -102 102 -45 60 -117 127 -189 176 -55 37 -33 33 89 -19z m288 -376
c97 -111 192 -343 221 -542 20 -130 20 -175 1 -368 -27 -274 -71 -574 -160
-1084 -76 -436 -214 -1018 -406 -1710 -135 -486 -170 -587 -195 -562 -3 2 11
53 30 113 38 118 78 256 125 429 16 61 48 177 71 259 66 238 226 880 254 1016
125 618 207 1135 256 1618 24 238 -35 510 -154 712 -24 41 -60 91 -80 110 -33
32 -66 79 -66 95 0 13 61 -38 103 -86z m-3 -69 c120 -176 190 -412 190 -636 0
-250 -108 -989 -241 -1649 -34 -168 -171 -737 -239 -989 -98 -366 -219 -789
-253 -883 -10 -30 -15 -33 -52 -33 -22 0 -56 3 -77 6 l-36 6 33 92 c123 341
287 875 370 1205 33 132 110 593 221 1331 8 52 25 163 39 245 43 262 55 397
55 638 0 283 -29 561 -76 727 -7 23 -6 24 10 10 10 -8 35 -39 56 -70z m-5699
-128 c-21 -39 -92 -309 -291 -1107 -211 -845 -214 -862 -174 -906 16 -18 16
-20 1 -37 -50 -55 -78 -173 -127 -537 -62 -466 -127 -842 -180 -1040 -34 -127
-93 -289 -85 -235 2 19 9 69 15 110 153 1156 300 2057 425 2610 53 234 142
521 235 755 49 124 182 416 187 411 3 -2 0 -13 -6 -24z m-1731 -3482 c237 -34
436 -81 650 -155 58 -20 127 -44 153 -53 40 -13 47 -20 43 -37 -2 -11 -10 -68
-17 -127 -7 -60 -16 -108 -20 -108 -4 0 -29 9 -56 21 -137 59 -422 140 -608
173 -349 62 -724 60 -1037 -5 -108 -22 -148 -34 -148 -45 0 -3 11 -4 25 -2 14
3 25 2 25 -1 0 -4 37 -3 83 2 128 14 566 14 707 -1 413 -44 727 -138 953 -286
15 -10 27 -14 27 -10 0 5 -28 26 -63 46 -210 125 -488 210 -827 253 -167 21
-552 30 -715 17 -71 -6 -131 -10 -133 -8 -1 2 48 13 110 24 501 93 1089 29
1591 -173 l67 -27 -5 -59 c-3 -33 -14 -87 -25 -121 -11 -34 -20 -70 -20 -80 0
-10 -4 -18 -9 -18 -5 0 -51 25 -102 55 -247 146 -502 247 -782 309 -330 74
-642 87 -887 38 -63 -13 -97 -16 -101 -9 -11 16 -93 -9 -194 -58 -286 -139
-558 -421 -723 -750 -158 -315 -317 -842 -372 -1235 l-12 -85 -60 -45 c-33
-25 -98 -85 -145 -134 l-86 -89 7 149 c20 452 136 994 285 1344 120 280 343
613 533 796 277 266 554 387 1053 459 28 4 131 13 230 20 163 11 170 13 80 14
-167 2 -405 -28 -600 -74 -418 -100 -691 -277 -962 -625 -115 -148 -262 -394
-339 -570 -161 -365 -293 -1003 -294 -1416 0 -92 -3 -117 -21 -150 l-20 -39 5
175 c19 589 167 1221 378 1610 144 264 287 461 458 630 260 256 573 397 1034
466 240 35 617 33 886 -6z m-1140 -11 c-532 -123 -890 -412 -1219 -987 -136
-235 -225 -467 -301 -777 -77 -319 -117 -617 -126 -950 l-6 -210 -39 -67 c-85
-145 -134 -273 -122 -317 3 -10 -2 -93 -11 -185 -20 -209 -20 -272 -1 -377 25
-135 43 -187 110 -324 35 -71 84 -174 110 -228 46 -97 114 -187 142 -187 11 0
13 -7 6 -32 -10 -40 -11 -164 -1 -234 6 -49 5 -53 -26 -88 -35 -37 -56 -98
-57 -163 0 -31 -6 -18 -35 72 -156 481 -285 1048 -324 1420 -32 299 -20 755
30 1135 49 378 146 831 236 1100 234 703 923 1298 1634 1413 74 12 74 3 0 -14z
m-337 -44 c-278 -100 -547 -272 -781 -499 -290 -281 -472 -583 -582 -966 -106
-369 -187 -811 -232 -1260 -17 -170 -17 -723 0 -865 55 -456 197 -1058 371
-1567 l29 -87 -10 -143 c-11 -168 -5 -263 24 -356 23 -76 99 -233 153 -317 19
-31 33 -60 30 -66 -7 -11 -55 -12 -72 -1 -32 20 -406 935 -517 1265 -87 257
-177 687 -216 1027 -40 344 -52 815 -30 1142 40 580 226 1261 477 1738 294
561 645 824 1289 964 152 34 175 31 67 -9z m1122 -350 c362 -57 627 -146 915
-305 192 -107 184 -100 181 -162 -2 -44 -19 -87 -101 -253 -162 -328 -332
-592 -451 -699 -47 -42 -51 -44 -131 -51 -615 -49 -993 -115 -1193 -210 -65
-30 -80 -33 -200 -38 -325 -13 -689 -132 -985 -322 -64 -41 -70 -43 -66 -23 3
13 15 82 27 153 67 405 239 925 395 1196 115 199 303 412 470 531 120 86 318
155 549 193 115 18 447 13 590 -10z m5755 -139 c-237 -71 -502 -288 -678 -554
-297 -450 -521 -1165 -652 -2082 -88 -619 -130 -1194 -130 -1798 0 -906 90
-1886 229 -2499 15 -68 24 -123 20 -123 -5 0 -38 14 -74 31 -44 21 -67 39 -70
53 -91 396 -164 969 -212 1671 -22 319 -25 1376 -5 1610 33 384 44 502 63 669
86 770 213 1365 404 1891 195 538 438 868 776 1052 76 41 238 89 314 92 21 1
41 4 44 6 2 3 14 5 25 4 12 0 -13 -10 -54 -23z m260 14 c-8 -5 -30 -10 -49
-10 -52 0 -167 -38 -261 -85 -212 -106 -400 -288 -572 -550 -433 -659 -707
-1973 -753 -3610 -15 -504 31 -1346 106 -1940 36 -288 106 -695 139 -810 24
-84 23 -85 -14 -85 -19 0 -37 4 -40 8 -9 15 -64 270 -90 422 -73 418 -119 848
-158 1485 -16 265 -16 1166 0 1400 118 1687 415 2808 892 3370 187 220 442
376 661 404 95 12 157 13 139 1z m295 -19 c-6 -5 -28 -14 -50 -21 -60 -19
-172 -77 -250 -130 -289 -196 -513 -524 -672 -983 -217 -628 -336 -1174 -447
-2057 -38 -297 -58 -507 -82 -860 -21 -306 -30 -1296 -15 -1570 24 -421 99
-1056 160 -1355 19 -95 25 -144 18 -152 -8 -12 -77 -19 -77 -9 0 2 -7 31 -15
63 -58 231 -133 825 -170 1348 -27 369 -19 1258 15 1780 35 536 132 1268 236
1785 38 187 126 540 169 680 128 413 204 619 295 800 165 329 406 549 720 656
89 31 186 45 165 25z m-290 -15 c-71 -23 -269 -123 -351 -178 -150 -100 -334
-307 -462 -519 -341 -568 -567 -1486 -672 -2729 -31 -377 -40 -590 -40 -1000
1 -884 85 -1819 220 -2424 28 -126 58 -224 46 -151 -3 17 -19 89 -35 160 -89
393 -158 962 -203 1695 -16 258 -16 1183 0 1405 86 1181 235 1977 492 2627
162 407 417 762 669 931 73 50 292 158 346 172 38 9 101 17 95 12 -3 -3 -39
-19 -80 -36 -172 -71 -383 -243 -502 -408 -110 -153 -208 -363 -313 -673 -144
-423 -226 -730 -300 -1125 -19 -104 -39 -212 -45 -240 -20 -106 -88 -589 -119
-850 -38 -318 -66 -722 -81 -1173 -24 -726 -2 -1252 80 -1917 37 -295 95 -644
117 -701 7 -18 6 -18 -112 11 -55 14 -102 25 -104 25 -2 0 0 7 3 16 4 9 2 22
-3 28 -20 24 -97 413 -135 687 -139 977 -170 2059 -85 2994 100 1103 279 1904
553 2470 121 251 234 415 395 576 203 202 439 324 631 327 l35 1 -40 -13z
m748 -15 c83 -14 217 -72 294 -127 104 -74 288 -239 360 -323 135 -159 394
-570 393 -625 -1 -12 -7 -34 -13 -50 l-13 -30 -42 77 c-24 42 -84 139 -134
215 -78 116 -118 163 -263 307 -340 341 -501 434 -760 438 -87 2 -126 -3 -186
-20 -141 -40 -253 -100 -348 -188 -96 -88 -260 -312 -330 -452 -104 -207 -236
-598 -384 -1138 -76 -275 -134 -548 -182 -855 -14 -91 -32 -205 -40 -255 -47
-296 -78 -593 -100 -958 -44 -725 -57 -1299 -35 -1557 16 -190 48 -488 70
-650 60 -445 122 -887 126 -899 16 -49 8 32 -31 304 -68 480 -102 744 -137
1065 -40 376 -30 989 33 1930 32 487 164 1326 270 1728 159 600 300 1033 411
1260 47 97 142 241 229 348 129 158 258 247 434 299 73 22 109 27 188 26 260
-3 422 -95 758 -430 164 -164 197 -202 277 -325 50 -76 108 -172 129 -213 l38
-74 -29 -25 c-52 -45 -63 -34 -118 116 -61 163 -76 200 -95 221 -9 11 -46 21
-111 30 l-97 12 -60 69 c-131 150 -341 325 -469 390 -166 84 -377 69 -543 -39
-116 -76 -296 -307 -388 -498 -156 -325 -390 -1123 -489 -1665 -89 -486 -144
-913 -170 -1305 -56 -844 -69 -1381 -41 -1735 22 -286 73 -714 132 -1110 20
-129 35 -253 35 -274 -1 -88 -73 -131 -236 -142 -104 -7 -108 -6 -98 12 6 11
7 25 1 35 -29 55 -109 574 -148 969 -45 445 -46 467 -46 1165 1 815 17 1120
96 1752 106 858 206 1334 423 2007 197 612 502 1001 920 1173 l81 34 190 -5
c105 -3 216 -10 248 -15z m422 -16 c44 -4 84 -10 89 -13 5 -3 27 -7 50 -8 49
-4 137 -24 151 -34 6 -3 20 -7 33 -8 30 -1 123 -44 166 -77 28 -21 35 -34 40
-76 9 -64 -1 -79 -25 -40 -25 41 -101 95 -169 121 -91 34 -410 95 -410 78 0
-4 10 -8 23 -8 52 -1 361 -70 410 -93 103 -47 157 -114 157 -194 l0 -38 -19
30 c-54 90 -177 146 -409 189 -73 14 -90 21 -140 62 -31 26 -63 49 -69 51 -28
11 -3 77 25 69 9 -2 53 -7 97 -11z m-1796 -29 c-2 -3 -40 -28 -84 -56 -111
-72 -293 -258 -377 -385 -222 -335 -412 -857 -547 -1505 -102 -486 -189 -1196
-221 -1790 -13 -239 -13 -1018 0 -1281 33 -671 106 -1321 201 -1778 24 -118
24 -118 -6 -90 -91 84 -126 266 -180 924 -25 307 -33 388 -80 847 -44 432 -51
646 -32 1017 9 179 19 463 22 631 4 277 15 440 44 695 53 452 120 837 202
1150 43 166 171 573 214 681 118 294 368 632 593 802 70 53 283 170 251 138z
m-2065 -156 c499 -54 1005 -144 1336 -237 69 -19 128 -38 133 -42 4 -4 -5 -23
-19 -42 -14 -18 -29 -40 -33 -47 -5 -10 -44 -4 -172 27 -286 69 -683 141 -969
177 -107 13 -140 20 -157 36 -19 18 -26 19 -52 9 -24 -10 -68 -9 -238 8 -114
12 -215 21 -223 21 -8 0 12 27 45 60 l60 61 50 -6 c28 -3 135 -14 239 -25z
m4069 -26 c138 -34 230 -83 269 -142 16 -25 16 -26 -3 -39 -10 -8 -19 -21 -19
-29 0 -19 -5 -18 -37 12 -45 42 -112 77 -188 99 -60 17 -83 30 -136 78 l-64
58 40 -6 c22 -3 84 -17 138 -31z m-4220 -100 c103 -10 187 -21 187 -26 0 -4
-11 -32 -25 -63 l-24 -56 -48 6 c-26 4 -148 16 -270 28 l-222 22 67 58 c62 54
70 58 107 53 22 -2 124 -12 228 -22z m3573 -31 c84 -35 171 -93 281 -185 86
-73 267 -257 260 -264 -3 -3 -75 3 -162 11 -157 17 -158 17 -184 48 -60 74
-201 212 -257 253 -34 24 -88 56 -120 71 -52 24 -71 28 -157 28 l-97 0 42 18
c24 10 66 24 93 29 63 14 131 -5 224 -59 64 -38 259 -220 339 -318 23 -27 43
-47 46 -44 9 8 -192 226 -266 289 -78 66 -200 140 -233 140 -11 0 -27 5 -35
11 -11 8 9 9 70 6 65 -3 103 -12 156 -34z m749 -12 c109 -50 169 -132 117
-160 -15 -8 -24 -3 -46 26 -16 19 -51 50 -80 68 -28 18 -67 50 -86 70 l-35 37
35 -7 c19 -4 62 -19 95 -34z m-3803 -21 c116 -17 264 -40 327 -51 262 -46 683
-138 697 -152 5 -4 -17 -42 -61 -105 -1 -1 -60 11 -131 27 -160 36 -407 84
-579 111 -71 12 -170 28 -220 36 -49 7 -118 17 -152 20 l-62 7 -16 53 c-8 29
-18 60 -21 69 -3 8 -3 15 0 15 3 0 101 -14 218 -30z m2878 -57 c86 -39 201
-133 294 -240 41 -48 74 -88 73 -89 -1 0 -60 3 -130 9 l-129 10 -23 36 c-69
107 -197 227 -288 271 -70 34 -59 40 58 36 63 -3 94 -10 145 -33z m-3577 -3
c122 -12 243 -24 268 -28 l47 -7 -29 -61 -29 -61 -102 13 c-57 7 -201 20 -321
30 -119 10 -214 21 -210 25 24 23 139 109 146 109 5 0 108 -9 230 -20z m3400
-49 c70 -45 175 -149 224 -221 l31 -46 -23 -84 -23 -85 3 80 c1 44 1 64 -2 45
-16 -144 -68 -343 -151 -590 -52 -154 -130 -359 -157 -409 -8 -17 -11 -31 -6
-31 18 0 174 408 221 580 7 25 14 40 17 34 2 -6 -24 -106 -57 -223 -59 -208
-108 -349 -148 -427 -24 -46 -120 -144 -142 -144 -11 0 -587 187 -597 194 -8
6 34 126 43 126 28 0 225 -99 292 -146 12 -9 22 -12 22 -8 0 15 -131 92 -227
135 -76 33 -88 41 -85 61 6 33 21 68 30 68 4 0 39 -18 76 -41 37 -22 70 -38
73 -36 3 3 -31 26 -75 52 l-79 46 50 157 c144 454 265 690 459 898 l62 66 52
-4 c40 -3 67 -14 117 -47z m1138 16 c36 -33 57 -73 45 -84 -3 -4 -7 -4 -9 -2
-1 2 -22 30 -45 62 -48 64 -45 73 9 24z m-3733 -67 c279 -43 489 -81 704 -129
76 -17 140 -31 142 -31 3 0 -9 -25 -27 -55 -18 -30 -37 -55 -44 -55 -6 0 -85
15 -175 34 -158 33 -451 84 -728 126 -74 11 -138 26 -142 33 -4 7 -8 26 -8 42
0 17 -3 40 -6 53 -5 16 -2 22 10 22 9 0 132 -18 274 -40z m-988 -25 c245 -21
392 -37 413 -44 16 -6 13 -13 -21 -61 -30 -43 -44 -55 -63 -53 -13 0 -127 11
-254 23 -126 12 -283 24 -349 28 l-118 7 83 57 c47 32 95 58 109 58 14 0 104
-7 200 -15z m1275 -165 c162 -28 453 -86 481 -95 14 -4 -35 -115 -51 -115 -5
0 -75 13 -155 30 -149 30 -562 99 -730 122 l-95 13 -3 66 -3 66 188 -28 c103
-15 269 -42 368 -59z m-1330 29 c185 -16 387 -38 391 -42 2 -2 -22 -29 -53
-59 l-58 -55 -75 8 c-163 18 -453 41 -600 47 l-154 7 94 58 95 57 120 -5 c66
-3 174 -10 240 -16z m4142 -94 c283 -23 547 -53 604 -70 8 -3 26 -30 39 -61
l23 -56 -32 -166 c-103 -535 -224 -830 -442 -1080 -84 -96 -171 -170 -348
-296 -231 -164 -820 -539 -1181 -752 -100 -59 -126 -98 -135 -204 l-5 -65 18
81 c9 44 25 92 34 106 9 14 65 54 125 89 373 219 1062 664 1260 814 130 98
283 256 358 370 146 222 240 486 325 914 27 138 40 187 40 153 0 -6 38 -114
85 -238 l84 -227 -15 -181 c-30 -373 -64 -702 -194 -1891 -5 -49 -14 -144 -20
-210 -30 -322 -66 -563 -106 -704 -61 -215 -228 -579 -365 -799 -144 -232
-354 -487 -824 -1002 -290 -318 -725 -750 -755 -750 -4 0 -10 10 -14 22 -4 18
2 29 27 48 99 76 466 449 757 770 664 730 831 971 1048 1507 94 230 124 364
161 713 12 107 35 323 51 480 17 157 39 364 50 460 86 771 157 1517 146 1528
-8 7 -15 -55 -32 -263 -17 -223 -48 -540 -94 -960 -51 -471 -90 -829 -116
-1080 -51 -503 -75 -616 -184 -890 -106 -268 -257 -545 -407 -747 -257 -346
-1091 -1257 -1357 -1483 l-59 -50 -16 25 c-9 14 -32 42 -51 64 -34 38 -36 44
-57 195 -35 246 -100 779 -120 971 -21 212 -24 829 -5 1200 45 858 64 1067
152 1620 17 107 36 226 42 263 6 42 18 75 29 85 9 10 99 64 199 120 l182 104
57 -11 c109 -21 147 -30 210 -50 42 -13 59 -15 50 -7 -14 14 -124 45 -233 66
l-59 12 53 33 52 32 110 -23 c96 -20 171 -40 235 -60 14 -5 15 -4 4 4 -12 8
-9 15 15 36 54 47 70 52 110 32 20 -9 39 -14 42 -12 3 3 -14 14 -36 24 l-41
19 37 36 37 37 60 -19 c33 -10 70 -23 83 -30 12 -7 22 -8 22 -2 0 10 -100 51
-125 51 -27 0 -24 17 10 50 l34 33 57 -12 c41 -9 53 -16 45 -24 -15 -15 -14
-47 3 -47 7 0 25 9 39 20 25 20 28 20 58 5 17 -9 34 -14 37 -11 3 4 -9 12 -26
18 -18 7 -31 15 -30 18 2 3 24 25 50 49 l47 43 32 -16 c38 -19 42 -20 34 -6
-4 6 -19 16 -35 23 l-29 12 35 38 c29 31 38 36 54 27 30 -16 37 -11 12 8 l-23
18 33 42 c34 44 46 50 66 30 9 -9 12 -9 12 0 0 6 -7 15 -17 20 -15 9 -14 14
11 56 23 39 30 45 42 35 9 -7 14 -8 14 -1 0 6 -5 12 -11 14 -7 2 -2 21 12 51
15 31 28 46 37 42 9 -3 12 1 7 14 -3 12 3 38 16 63 27 54 26 53 44 38 8 -7 15
-9 15 -5 0 4 -7 13 -15 19 -14 10 -14 16 2 59 14 39 21 46 38 41 19 -6 19 -5
3 11 -14 16 -15 21 -1 61 16 49 16 48 44 34 13 -7 19 -7 19 0 0 5 -3 10 -7 10
-28 1 -34 18 -22 63 6 26 13 47 16 47 2 0 17 -7 33 -15 17 -9 30 -11 30 -6 0
5 -14 14 -31 21 -29 12 -30 15 -23 54 3 23 8 44 11 49 7 11 31 8 66 -8 l32
-16 -24 21 c-13 11 -31 20 -42 20 -26 0 -29 11 -21 61 9 49 17 51 95 24 32
-11 36 -11 26 1 -6 7 -27 16 -48 20 -20 3 -46 12 -57 20 -14 8 -36 11 -57 7
-20 -3 -61 -2 -91 1 -46 6 -56 11 -56 27 0 24 -30 25 -37 1 -5 -21 7 -21 -220
-2 -67 5 -131 10 -142 10 -14 0 -21 6 -21 19 0 28 18 71 29 71 5 0 94 -7 198
-15z m-3205 -15 c251 -37 813 -135 825 -144 1 -1 -7 -28 -19 -59 -13 -37 -26
-57 -37 -57 -9 0 -74 12 -146 26 -154 30 -644 110 -732 120 -70 7 -68 5 -57
88 4 28 12 46 20 46 7 0 73 -9 146 -20z m-962 -30 c135 -11 253 -24 264 -28
15 -7 10 -13 -35 -43 -113 -75 -64 -71 -454 -39 -77 7 -234 15 -350 19 l-209
6 114 58 115 57 155 -5 c85 -2 265 -14 400 -25z m4115 -55 c94 -8 177 -15 187
-15 10 0 15 -7 13 -17 -2 -10 -7 -31 -10 -47 l-6 -28 -82 6 c-129 10 -302 28
-305 31 -6 5 19 85 26 85 4 0 84 -7 177 -15z m330 -25 c57 0 65 -8 58 -58 l-6
-43 -71 7 c-39 4 -72 8 -74 9 -2 2 0 24 4 50 6 41 9 46 28 41 11 -3 39 -6 61
-6z m-3535 -24 c256 -38 759 -125 812 -142 15 -5 15 -9 1 -57 -8 -29 -18 -55
-21 -59 -4 -4 -25 -3 -47 2 -99 22 -576 101 -807 134 -48 7 -90 14 -92 17 -3
2 3 30 11 62 18 65 9 62 143 43z m3213 -57 l178 -13 -7 -45 c-4 -25 -8 -48
-10 -50 -4 -4 -385 29 -395 35 -3 2 -1 24 5 49 9 39 14 45 31 41 11 -2 100
-10 198 -17z m360 -36 c5 -3 5 -19 2 -36 -13 -67 -8 -64 -85 -53 l-70 10 6 35
c10 64 8 63 76 55 35 -4 67 -9 71 -11z m638 -46 c14 -31 14 -38 -2 -75 -20
-47 -86 -116 -118 -125 -17 -4 -24 0 -32 19 -14 37 -12 42 20 49 16 3 38 16
49 28 25 26 52 88 52 117 0 30 14 24 31 -13z m-4103 -22 c249 -38 412 -65 570
-95 57 -11 105 -20 106 -20 6 0 -26 -104 -34 -113 -4 -5 -70 3 -146 16 -283
52 -771 127 -818 127 -29 0 -33 11 -10 31 8 7 24 30 35 51 15 29 25 38 45 38
14 0 128 -16 252 -35z m3115 -7 l149 -12 -7 -35 c-4 -20 -10 -40 -15 -45 -5
-5 -91 -1 -205 10 l-196 18 6 35 c10 52 13 54 68 47 28 -3 118 -11 200 -18z
m314 -35 c20 -4 21 -7 9 -46 -12 -42 -13 -42 -57 -39 -85 4 -91 8 -83 50 4 20
9 41 11 45 5 8 67 3 120 -10z m678 -125 c-27 -40 -78 -78 -106 -78 -9 0 -21
11 -27 24 -10 22 -8 25 17 34 35 12 84 61 113 114 l23 41 3 -48 c3 -37 -2 -55
-23 -87z m-1318 80 c-3 -8 -6 -5 -6 6 -1 11 2 17 5 13 3 -3 4 -12 1 -19z m273
-18 c58 -5 121 -13 141 -16 l36 -5 -11 -39 c-6 -21 -14 -41 -16 -43 -5 -5
-365 30 -387 38 -8 3 -8 14 -1 46 l11 42 61 -6 c34 -4 108 -11 166 -17z
m-5375 -15 c140 -14 305 -32 590 -65 44 -6 181 -19 305 -30 754 -67 1977 -203
1996 -222 2 -2 1 -14 -3 -27 -5 -19 -10 -22 -42 -17 -20 4 -263 29 -541 56
-278 28 -543 54 -590 59 -47 5 -157 17 -245 25 -88 9 -176 19 -195 22 -22 3
-31 2 -25 -4 6 -5 107 -19 225 -31 118 -12 298 -31 400 -41 269 -28 452 -47
739 -75 140 -14 256 -27 258 -29 2 -2 -9 -57 -26 -122 -34 -137 -91 -422 -91
-453 0 -12 -2 -21 -5 -21 -3 0 -164 27 -358 60 -193 32 -575 91 -847 130 -531
76 -673 101 -1070 185 -315 67 -333 70 -555 94 -234 26 -515 48 -790 61 -638
31 -955 60 -1269 117 -81 14 -88 17 -71 30 56 40 346 111 605 148 123 17 472
53 582 59 55 4 97 14 146 35 60 25 156 51 242 64 69 11 491 5 635 -8z m5732
-30 c2 -1 -4 -23 -13 -49 -14 -41 -19 -47 -38 -42 -11 4 -40 9 -64 13 -42 6
-43 7 -36 37 13 62 16 64 86 53 35 -5 64 -11 65 -12z m689 -63 c-20 -39 -65
-74 -90 -70 -31 5 -30 25 3 31 16 4 45 22 63 41 38 40 46 40 24 -2z m-1096 7
c102 -11 187 -22 189 -25 6 -6 -30 -94 -39 -94 -5 0 -42 4 -82 9 -40 5 -118
15 -173 21 -132 15 -126 13 -114 52 6 18 12 39 15 46 4 15 -15 16 204 -9z
m310 -39 c30 -6 55 -12 57 -13 6 -7 -29 -97 -37 -97 -13 0 -114 22 -119 26 -5
5 31 94 39 94 4 0 31 -5 60 -10z m-341 -71 c97 -12 177 -23 179 -24 2 -1 -7
-23 -19 -48 -19 -40 -26 -45 -48 -42 -14 3 -80 11 -146 20 -214 28 -195 22
-183 58 5 18 11 38 14 45 4 15 -4 16 203 -9z m319 -45 c23 -4 42 -8 42 -11 0
-4 -40 -86 -45 -91 -6 -7 -125 21 -125 30 0 5 9 27 21 49 17 33 24 40 42 35
12 -3 41 -8 65 -12z m-423 -53 c39 -5 107 -15 152 -22 l81 -11 -27 -47 c-22
-37 -33 -45 -52 -44 -56 6 -302 42 -303 45 -2 2 4 24 11 50 13 43 16 47 41 43
15 -2 59 -9 97 -14z m-7259 -65 c262 -44 630 -78 1029 -96 603 -27 1074 -72
1350 -129 77 -16 228 -48 335 -70 256 -54 407 -79 870 -146 543 -77 1213 -185
1224 -196 3 -3 -6 -74 -18 -159 -33 -217 -54 -380 -71 -560 -8 -85 -18 -177
-21 -205 -3 -27 -9 -241 -14 -475 -5 -234 -14 -508 -20 -610 -18 -279 -6 -552
45 -1025 28 -265 46 -458 75 -810 46 -574 84 -768 167 -856 24 -26 25 -31 21
-142 l-3 -116 -34 -35 c-35 -36 -91 -59 -168 -70 -64 -9 -209 9 -508 65 -455
84 -541 101 -1020 200 -159 33 -358 74 -442 91 l-152 31 -34 56 c-90 146 -150
298 -197 496 -74 312 -91 740 -44 1083 l5 44 42 -7 c23 -4 69 -11 103 -16 l61
-10 -11 -57 c-15 -86 -14 -708 2 -817 23 -154 61 -323 97 -434 42 -124 124
-295 167 -342 33 -39 29 -27 -20 50 -193 304 -289 874 -242 1434 16 184 2 167
117 148 l98 -17 -1 -39 c0 -22 -6 -128 -12 -235 -24 -383 23 -791 124 -1070
46 -128 166 -352 180 -337 3 3 -8 24 -25 49 -211 312 -310 884 -259 1491 l11
138 41 -6 c23 -4 70 -11 104 -17 l64 -10 -6 -42 c-14 -99 -26 -412 -21 -531
19 -396 74 -664 189 -909 43 -93 124 -222 133 -213 2 3 -12 27 -31 55 -68 94
-152 289 -195 452 -73 276 -102 720 -69 1058 10 113 13 122 32 122 26 0 176
-27 180 -31 2 -2 0 -47 -5 -99 -25 -288 -21 -546 12 -795 30 -225 82 -416 163
-591 38 -81 122 -214 136 -214 4 0 -12 30 -37 67 -183 273 -273 661 -273 1178
0 179 14 442 24 452 1 1 48 -5 105 -14 68 -10 101 -20 98 -27 -3 -7 -11 -110
-18 -229 -29 -489 38 -939 187 -1254 36 -76 133 -227 141 -220 2 3 -16 35 -41
72 -102 148 -189 377 -230 605 -41 223 -48 345 -42 655 3 165 9 318 12 340 l6
41 71 -13 c40 -7 85 -12 101 -13 l29 0 -7 -102 c-29 -462 -11 -762 63 -1063
36 -143 59 -211 112 -325 41 -87 137 -240 152 -240 4 0 -13 29 -38 64 -134
189 -232 488 -270 829 -22 199 -17 799 8 823 5 5 188 -23 195 -31 3 -2 0 -69
-7 -149 -40 -512 26 -1007 179 -1333 42 -90 148 -258 157 -249 3 3 -17 38 -44
78 -171 249 -259 566 -284 1033 -9 164 2 558 17 606 4 14 14 15 101 3 53 -8
98 -16 101 -18 2 -3 -1 -70 -7 -149 -34 -439 11 -885 119 -1193 55 -157 154
-340 212 -390 26 -23 18 -8 -37 67 -133 181 -233 486 -271 828 -17 160 -23
485 -10 694 l8 147 45 0 c37 0 44 3 41 17 -2 12 -15 20 -38 23 l-35 5 2 55 c2
38 0 50 -7 40 -5 -8 -10 -32 -10 -52 0 -44 5 -43 -122 -27 l-87 12 4 61 4 61
-11 -58 c-12 -66 -8 -64 -138 -43 l-75 12 3 39 c2 22 5 48 8 58 3 9 1 17 -4
17 -5 0 -12 -23 -14 -50 -3 -28 -8 -53 -11 -56 -2 -3 -34 0 -68 5 -35 6 -79
14 -98 17 l-33 5 6 62 c5 43 4 57 -4 47 -5 -8 -10 -34 -10 -57 0 -23 -3 -44
-7 -46 -5 -2 -52 3 -106 11 l-97 16 5 65 c3 46 2 57 -4 36 -5 -16 -9 -45 -10
-62 -1 -19 -6 -33 -13 -33 -19 0 -190 29 -193 32 -2 2 1 30 6 63 4 33 6 61 4
64 -6 5 -12 -14 -22 -74 l-8 -51 -100 16 c-55 9 -99 21 -99 26 1 5 4 36 8 69
7 69 -7 47 -18 -28 -7 -48 -8 -49 -39 -43 -18 3 -62 10 -99 17 -64 10 -68 13
-68 38 0 14 4 43 9 64 5 21 5 37 0 37 -5 0 -9 -7 -9 -15 0 -7 -5 -36 -10 -62
l-11 -49 -97 17 c-97 16 -97 16 -97 45 1 16 4 46 9 67 4 24 4 37 -2 33 -5 -3
-13 -30 -17 -61 -3 -30 -10 -57 -14 -59 -4 -3 -52 2 -105 11 l-98 16 6 31 c4
17 9 49 12 71 7 57 -11 14 -20 -48 -4 -26 -13 -47 -19 -47 -14 0 -191 31 -194
33 -1 1 4 30 11 65 8 34 10 62 6 62 -4 0 -13 -27 -19 -60 -7 -33 -17 -60 -23
-60 -6 0 -51 8 -101 17 l-89 17 7 41 c3 22 8 51 11 65 4 20 3 22 -5 10 -6 -8
-14 -36 -17 -63 -4 -28 -12 -47 -20 -47 -7 0 -54 9 -104 21 -64 15 -90 25 -86
34 2 7 7 34 10 61 l6 49 -18 -60 -17 -61 -95 21 c-105 24 -105 23 -86 104 5
21 5 31 -2 27 -5 -3 -12 -24 -16 -47 -4 -23 -9 -45 -11 -49 -5 -7 -190 32
-200 42 -3 3 0 19 6 36 6 17 9 39 7 49 -2 10 -10 -6 -17 -35 -11 -46 -16 -52
-33 -46 -11 3 -54 14 -94 24 -41 9 -77 20 -80 23 -3 3 -1 21 4 41 6 20 7 36 2
36 -5 0 -12 -15 -15 -32 -10 -47 -10 -47 -68 -33 -28 7 -64 16 -79 19 -25 6
-26 8 -17 38 11 40 11 38 0 38 -5 0 -12 -15 -15 -33 l-6 -34 -78 17 -77 17 2
39 2 39 -11 -35 c-6 -19 -12 -36 -12 -37 -1 -1 -37 6 -81 15 l-80 17 2 35 2
35 -10 -32 c-11 -36 -14 -37 -79 -23 -99 22 -93 18 -86 50 3 17 1 30 -4 30 -6
0 -10 -10 -10 -23 0 -13 -2 -26 -5 -29 -3 -2 -41 2 -85 11 l-81 15 7 29 c4 20
3 27 -5 23 -6 -4 -11 -16 -11 -27 0 -22 -9 -23 -100 -5 -63 12 -65 13 -63 42
l3 29 -12 -25 c-7 -14 -12 -26 -13 -27 -1 -1 -35 3 -76 10 -71 12 -74 14 -74
40 1 15 -3 27 -7 27 -4 0 -8 -9 -8 -19 0 -29 -10 -31 -91 -18 l-74 13 1 32 c1
18 -2 29 -7 26 -5 -3 -9 -16 -9 -30 0 -23 -3 -24 -32 -19 -18 3 -55 9 -83 13
-50 7 -50 8 -48 42 l2 35 -11 -33 c-10 -31 -14 -33 -42 -27 -17 3 -53 9 -79
12 -48 6 -49 6 -45 40 2 18 0 33 -4 33 -4 0 -8 -11 -8 -24 0 -14 -4 -27 -8
-30 -4 -2 -43 0 -86 6 l-78 11 5 34 c3 18 2 33 -4 33 -5 0 -9 -14 -9 -31 l0
-32 -52 7 c-122 15 -119 14 -112 54 5 25 4 33 -5 28 -6 -4 -11 -21 -11 -38 0
-21 -4 -29 -14 -25 -7 3 -35 8 -62 12 -93 12 -90 10 -87 57 l2 43 -11 -42
c-11 -42 -11 -43 -48 -37 -24 4 -40 2 -45 -5 -11 -18 13 -40 48 -43 18 -2 32
-8 31 -15 -1 -7 -2 -65 -2 -128 l-2 -115 -35 0 -35 0 17 -35 c12 -24 23 -35
39 -35 19 0 22 -7 28 -69 4 -38 15 -104 25 -146 l19 -77 -59 4 c-33 2 -56 1
-52 -3 6 -5 1146 -714 2105 -1309 92 -57 166 -105 165 -106 -1 -2 -122 17
-267 41 -146 24 -366 60 -490 80 -129 21 -255 48 -295 62 -103 38 -277 89
-382 112 -120 28 -218 63 -327 119 -156 80 -187 113 -375 397 -248 372 -305
503 -305 690 1 98 10 499 13 542 0 12 19 43 42 69 34 40 40 52 35 78 -15 82
-18 204 -7 239 15 44 27 52 109 67 81 14 185 0 341 -46 165 -48 393 -107 561
-144 338 -74 461 -103 555 -130 55 -15 143 -37 195 -49 288 -62 967 -175 1185
-196 178 -17 289 -34 475 -70 147 -29 364 -64 615 -100 99 -14 225 -35 280
-45 488 -93 1036 -155 1485 -167 172 -4 189 -3 242 17 60 22 106 66 89 83 -6
6 -20 -1 -40 -20 -39 -40 -96 -53 -228 -53 -129 0 -507 25 -688 46 -341 39
-606 76 -770 108 -99 19 -305 53 -459 75 -153 23 -364 57 -470 76 -296 55
-349 63 -523 80 -322 31 -1089 167 -1383 245 -102 27 -228 58 -280 69 -52 11
-156 34 -230 51 -346 78 -350 79 -584 149 -205 61 -284 67 -457 35 -31 -5 -41
-2 -74 27 l-38 34 49 7 c77 10 212 9 219 -2 3 -5 11 -10 16 -10 6 0 7 5 4 10
-4 6 14 10 48 10 42 0 58 -5 73 -21 10 -11 28 -25 39 -30 11 -6 4 4 -15 21
l-34 30 58 0 c56 0 60 -2 113 -50 31 -28 58 -49 60 -46 3 2 -14 21 -36 41 -23
21 -41 40 -41 44 0 3 28 4 61 3 61 -4 62 -4 121 -68 33 -35 65 -64 71 -64 6 0
-15 28 -48 61 l-60 61 63 -6 c35 -3 69 -9 76 -13 7 -5 37 -37 67 -72 30 -35
61 -67 69 -69 8 -3 -11 23 -43 58 -59 66 -69 85 -39 76 9 -2 42 -10 73 -16 49
-9 61 -16 83 -48 28 -41 106 -121 106 -109 0 5 -16 25 -36 45 -49 51 -78 92
-64 92 7 0 43 -9 81 -21 63 -19 73 -26 113 -78 45 -58 76 -89 76 -76 0 4 -20
30 -45 58 -48 55 -56 73 -27 62 9 -3 45 -15 80 -27 54 -17 68 -27 109 -79 25
-33 48 -57 51 -55 2 3 -12 25 -32 49 -20 24 -36 47 -36 50 0 3 35 -6 78 -20
65 -22 84 -33 124 -77 52 -56 66 -58 17 -1 -18 20 -30 38 -27 40 2 2 37 -5 78
-16 67 -19 78 -26 108 -66 19 -24 36 -42 39 -39 3 3 -7 19 -21 37 -15 17 -25
33 -23 35 2 2 36 -3 76 -12 66 -15 74 -20 103 -60 17 -24 33 -42 36 -39 3 2
-7 20 -22 40 -31 40 -31 40 60 19 64 -14 71 -19 99 -59 16 -24 31 -42 34 -40
2 3 -8 23 -24 46 -15 23 -21 40 -14 37 8 -3 43 -11 79 -18 61 -12 67 -15 93
-58 15 -24 30 -42 33 -39 4 3 -4 20 -16 37 -12 17 -20 33 -18 35 2 2 35 -1 72
-8 67 -11 70 -13 98 -59 17 -27 34 -48 39 -48 5 0 -3 18 -17 40 -15 22 -25 42
-23 44 9 9 142 -23 151 -36 4 -7 18 -30 30 -50 12 -21 26 -38 30 -38 10 0 9 2
-30 64 -14 23 -19 37 -11 34 8 -3 58 -13 111 -23 l97 -17 27 -45 c14 -24 28
-42 31 -39 3 3 -5 21 -17 40 -16 27 -18 36 -8 36 37 0 203 -42 210 -53 5 -6
13 -20 19 -30 6 -10 13 -16 16 -13 3 3 -2 17 -11 32 -17 25 -17 26 1 20 10 -3
59 -15 108 -27 55 -13 99 -29 113 -42 20 -19 22 -19 16 -3 -6 15 -3 17 12 13
38 -12 216 -47 336 -66 302 -49 399 -61 1408 -176 194 -22 492 -45 590 -45 54
0 91 -4 96 -11 4 -7 9 -8 13 -1 3 6 42 15 86 21 l80 12 27 -33 c15 -18 28 -28
28 -22 0 6 -7 17 -15 24 -26 21 -17 35 35 53 54 19 110 61 110 82 0 27 -20 25
-61 -5 -37 -26 -115 -57 -124 -48 -2 2 -6 19 -10 39 -6 34 -5 36 23 42 42 9
91 52 75 68 -9 9 -22 6 -58 -11 -25 -12 -48 -20 -51 -18 -8 8 -24 345 -24 503
0 169 21 337 72 568 l32 148 75 -7 c127 -13 146 -12 146 11 0 18 -10 21 -102
29 -57 5 -103 12 -103 15 0 3 8 29 18 56 l18 50 55 -4 c106 -9 114 -8 114 14
0 17 -9 21 -69 28 -38 4 -72 9 -74 12 -5 4 16 48 49 103 21 34 21 36 2 19 -11
-9 -32 -42 -47 -73 -23 -47 -31 -55 -49 -51 -12 3 -59 9 -104 13 -46 3 -83 11
-83 16 0 16 38 85 65 117 15 17 23 31 17 31 -14 0 -36 -29 -72 -94 l-33 -58
-61 6 c-111 12 -146 18 -146 27 0 13 60 112 83 137 11 12 15 22 9 22 -13 0
-59 -65 -90 -126 l-21 -41 -103 14 c-56 8 -104 16 -106 18 -6 6 36 81 72 128
20 26 32 47 27 47 -12 0 -73 -83 -100 -137 -15 -30 -25 -40 -38 -37 -10 2 -55
8 -101 13 -46 5 -86 11 -89 15 -7 7 41 91 84 144 19 23 30 42 25 42 -11 0 -88
-103 -114 -154 -19 -37 -21 -38 -61 -32 -23 3 -72 8 -109 12 l-67 6 19 38 c11
21 42 69 70 107 l51 68 -45 -48 c-25 -26 -59 -72 -76 -102 -36 -63 -36 -63
-162 -43 -45 6 -78 16 -78 23 0 20 61 109 108 158 25 26 41 47 35 47 -17 0
-85 -79 -128 -148 -44 -72 -26 -68 -172 -36 l-73 16 23 40 c12 22 48 68 80
104 32 35 55 64 50 64 -16 0 -90 -83 -127 -142 -20 -32 -43 -58 -51 -58 -7 0
-54 9 -103 21 l-90 20 21 37 c12 19 48 64 80 99 33 35 55 63 50 63 -15 0 -105
-99 -137 -151 l-29 -46 -94 22 c-51 12 -96 25 -100 28 -9 10 24 55 91 126 34
35 51 59 40 53 -26 -14 -107 -103 -131 -143 -10 -16 -22 -29 -27 -29 -25 0
-186 54 -186 63 0 5 33 42 74 83 40 41 69 74 63 74 -6 0 -45 -35 -86 -79 l-76
-78 -44 19 c-24 10 -64 23 -88 29 -23 6 -43 15 -43 19 0 5 30 36 66 69 37 34
62 61 56 61 -6 0 -42 -29 -79 -65 l-68 -65 -93 19 c-52 11 -96 22 -98 24 -3 2
25 32 62 66 37 33 62 61 57 61 -6 0 -42 -29 -80 -64 l-69 -65 -102 16 c-117
18 -117 18 -19 98 31 26 57 49 57 52 0 12 -66 -37 -110 -82 l-51 -51 -102 14
c-56 7 -104 16 -107 19 -6 6 83 86 123 110 15 10 27 21 27 26 0 15 -41 -14
-108 -77 l-67 -63 -105 14 c-58 8 -118 15 -135 17 -16 2 -56 7 -88 11 l-58 7
23 25 c13 14 45 41 71 60 26 20 46 38 43 41 -3 3 -40 -23 -82 -57 l-76 -63
-71 12 -71 12 30 27 c16 15 40 34 54 44 13 9 22 19 19 21 -3 3 -32 -16 -65
-43 l-59 -48 -80 6 -79 6 42 34 c24 18 41 36 38 38 -3 3 -28 -13 -55 -36 -44
-37 -58 -43 -108 -47 -32 -3 -74 -7 -93 -9 l-35 -4 49 45 c27 25 47 47 44 49
-2 3 -29 -17 -60 -45 l-55 -49 -89 -7 -89 -6 50 51 c67 69 45 65 -25 -4 l-56
-56 -85 3 -84 3 48 48 c26 26 43 47 38 47 -4 0 -30 -22 -57 -50 -41 -42 -54
-50 -98 -55 -28 -4 -69 -5 -91 -3 l-40 3 44 48 c24 26 42 50 39 53 -3 3 -29
-22 -58 -55 l-53 -61 -84 0 -84 0 19 28 c11 15 30 37 42 50 12 13 20 25 17 28
-5 5 -69 -64 -84 -90 -8 -14 -23 -16 -97 -14 l-89 3 37 48 c21 27 35 51 33 54
-6 5 -77 -86 -77 -98 0 -5 -40 -9 -90 -9 -49 0 -90 3 -90 7 0 3 10 20 23 37
13 17 27 38 31 46 9 17 -29 -23 -59 -63 -20 -27 -21 -27 -103 -19 l-82 7 26
38 c14 21 24 41 21 43 -2 3 -18 -16 -33 -41 l-29 -45 -87 0 c-49 0 -88 2 -88
4 0 3 9 22 21 43 l21 38 -26 -30 c-14 -16 -26 -35 -26 -42 0 -15 -68 -25 -138
-21 l-52 3 20 38 c11 20 16 37 12 37 -4 0 -18 -20 -29 -44 l-21 -43 -89 -5
c-48 -3 -89 -4 -91 -3 -1 1 5 19 13 39 9 21 14 43 12 49 -2 6 -12 -12 -22 -39
l-18 -51 -85 -7 c-47 -3 -87 -4 -90 -1 -3 3 0 23 7 46 18 59 6 60 -13 1 l-17
-50 -55 -7 c-31 -4 -58 -4 -61 -2 -11 12 50 156 110 254 35 60 76 133 91 164
81 172 428 434 741 559 230 92 443 140 650 146 77 3 144 9 149 14 5 5 16 5 27
0 9 -5 84 -21 165 -34z m7637 8 c32 -7 33 -13 7 -64 -23 -45 -22 -45 -101 -28
l-58 12 27 48 c29 53 24 52 125 32z m-378 -59 c178 -24 169 -20 150 -53 -39
-66 -26 -63 -186 -38 -141 22 -144 23 -141 46 7 48 21 72 40 66 9 -2 71 -12
137 -21z m287 -46 c29 -6 55 -13 57 -15 2 -2 -8 -23 -22 -47 l-26 -44 -63 14
c-35 8 -64 16 -66 18 -6 5 50 85 59 85 4 0 32 -5 61 -11z m-323 -59 c68 -10
125 -21 127 -23 6 -6 -57 -87 -67 -87 -13 0 -243 41 -246 44 -2 1 5 21 14 44
9 25 22 42 32 42 9 0 72 -9 140 -20z m249 -41 c78 -18 76 -16 53 -46 -52 -70
-45 -66 -103 -53 -29 6 -59 13 -66 16 -9 3 -4 17 19 49 36 50 33 49 97 34z
m-304 -64 c49 -8 93 -15 97 -15 16 0 9 -14 -22 -48 l-30 -34 -102 18 c-56 9
-106 20 -110 24 -4 4 0 24 9 44 15 31 22 36 44 31 14 -2 65 -12 114 -20z
m-667 -97 c155 -51 282 -96 283 -99 1 -19 -715 -447 -727 -435 -6 6 65 318
108 474 21 79 39 146 39 148 0 8 22 2 297 -88z m960 38 c2 -2 -12 -20 -30 -40
l-32 -38 -63 12 c-34 7 -62 16 -62 21 0 5 13 24 30 42 l30 34 62 -14 c35 -8
64 -16 65 -17z m-279 -46 c19 0 14 -12 -25 -54 l-36 -38 -91 17 c-50 10 -96
20 -103 22 -8 3 0 20 23 47 l35 43 92 -18 c51 -10 98 -19 105 -19z m155 -33
l48 -12 -44 -43 -44 -44 -61 12 -61 12 36 44 c39 48 50 51 126 31z m-320 -53
c48 -9 87 -20 87 -23 0 -4 -15 -21 -32 -38 l-33 -31 -110 24 c-60 12 -112 23
-114 23 -2 1 16 16 40 35 24 19 51 33 59 31 8 -2 54 -11 103 -21z m-95 -80
c56 -10 102 -21 102 -24 0 -3 -18 -20 -40 -38 l-39 -32 -63 14 c-35 8 -89 20
-121 26 l-59 12 49 33 c26 19 53 32 58 31 6 -2 56 -12 113 -22z m-120 -75
c147 -31 138 -26 107 -59 -15 -16 -25 -35 -22 -43 5 -12 -5 -12 -54 3 -32 10
-99 26 -149 36 -49 9 -90 20 -90 23 1 9 82 59 98 60 7 1 56 -8 110 -20z
m-6348 -508 c-37 -54 -45 -60 -83 -65 -113 -14 -137 -15 -137 -8 0 4 17 32 38
62 l37 55 75 6 c41 3 83 6 93 7 13 2 8 -11 -23 -57z m192 5 l-37 -53 -84 -7
c-46 -3 -86 -4 -89 -2 -2 3 13 30 34 60 l39 56 87 0 87 0 -37 -54z m185 35
c23 -6 23 -6 -12 -56 -39 -54 -30 -52 -143 -37 l-53 7 38 53 38 52 55 -6 c30
-4 64 -10 77 -13z m-549 -8 c-2 -5 -17 -31 -33 -59 -27 -47 -33 -52 -74 -58
-59 -8 -131 -8 -131 1 0 4 14 31 32 60 l32 52 60 4 c34 2 74 4 89 5 16 1 27
-1 25 -5z m-227 -66 l-31 -54 -81 -7 c-44 -4 -83 -5 -86 -2 -3 2 8 29 24 58
l28 53 85 5 c47 3 87 4 89 3 2 -1 -11 -26 -28 -56z m945 46 c21 -4 20 -6 -13
-56 -29 -43 -39 -51 -61 -49 -41 4 -122 23 -122 29 0 2 14 25 31 50 l31 45 57
-7 c31 -3 66 -9 77 -12z m-1108 0 c-2 -5 -15 -31 -30 -59 l-27 -51 -82 -6
c-46 -4 -85 -4 -88 -1 -3 3 7 29 23 59 l28 54 56 4 c115 7 124 7 120 0z
m-1159 -62 l-20 -58 -82 -5 c-45 -3 -84 -4 -86 -2 -2 2 3 27 11 56 l15 53 49
6 c27 3 68 7 91 7 l42 2 -20 -59z m190 7 c-11 -29 -21 -54 -22 -54 -1 -1 -39
-4 -84 -6 -56 -3 -83 -1 -83 6 0 6 8 32 17 59 l17 47 88 0 88 0 -21 -52z m195
15 c-9 -21 -18 -46 -21 -55 -5 -15 -18 -18 -94 -18 l-89 0 20 50 c11 28 20 53
20 55 0 3 41 5 90 5 l90 0 -16 -37z m190 26 c3 -3 -4 -29 -16 -57 l-22 -52
-83 0 c-46 0 -83 4 -83 9 0 4 10 32 22 61 l21 52 78 -4 c43 -1 80 -6 83 -9z
m365 -49 l-30 -60 -85 0 c-46 0 -84 2 -84 5 0 2 12 29 27 60 l27 55 88 0 88 0
-31 -60z m1488 44 c37 -4 73 -9 79 -13 7 -4 -1 -24 -22 -57 l-32 -50 -104 14
c-56 7 -105 15 -107 17 -2 3 11 27 29 56 30 45 36 50 61 45 16 -3 59 -8 96
-12z m-2607 -2 c0 -5 -7 -31 -15 -59 l-15 -51 -81 -7 c-44 -4 -82 -5 -85 -2
-3 3 1 29 8 58 l13 54 75 6 c41 3 81 6 88 7 6 1 12 -2 12 -6z m948 0 c-1 -4
-12 -29 -23 -55 l-20 -47 -87 0 -87 0 16 38 c31 75 26 72 119 72 47 0 84 -4
82 -8z m-1147 -43 c-6 -18 -11 -42 -11 -54 0 -19 -7 -23 -46 -29 -54 -7 -134
-8 -134 -1 0 2 5 27 11 54 10 49 11 50 52 56 48 6 130 11 136 8 2 -1 -2 -16
-8 -34z m3047 15 c40 -4 74 -10 77 -13 2 -4 -10 -28 -27 -54 -20 -32 -37 -47
-52 -47 -24 0 -189 22 -194 26 -2 1 12 25 30 53 30 47 36 51 63 47 17 -3 63
-8 103 -12z m-3239 -41 c-13 -72 -14 -73 -61 -73 l-43 0 3 60 4 60 53 0 52 0
-8 -47z m3454 13 c48 -7 90 -15 93 -18 4 -5 -17 -44 -53 -97 -1 -2 -52 2 -113
9 l-110 13 22 36 c28 48 49 71 62 71 6 0 50 -6 99 -14z m273 -46 l52 -11 -31
-50 c-27 -44 -35 -50 -57 -46 -14 3 -60 11 -102 18 -43 7 -78 16 -78 19 0 3
13 27 29 52 l29 45 53 -8 c29 -5 77 -13 105 -19z m-1316 6 c0 -2 -13 -32 -29
-67 -146 -323 -167 -790 -52 -1194 11 -38 18 -71 17 -73 -2 -1 -38 5 -80 14
l-76 17 -25 81 c-57 191 -80 384 -71 596 8 202 52 416 115 554 24 54 34 65 58
69 37 5 143 8 143 3z m167 -4 c9 -6 4 -28 -22 -87 -42 -99 -77 -220 -101 -350
-26 -138 -26 -497 -1 -635 15 -82 55 -236 72 -282 5 -14 -3 -13 -75 1 -82 16
-82 16 -96 56 -24 71 -63 248 -74 338 -13 109 -14 356 -1 458 22 171 72 352
126 459 l25 50 68 0 c37 0 73 -4 79 -8z m-360 -14 c-69 -164 -110 -313 -126
-461 -15 -135 -13 -364 4 -482 14 -101 58 -284 76 -317 12 -22 8 -22 -82 -2
-81 18 -82 20 -118 159 -39 149 -53 262 -52 445 0 244 31 419 106 608 18 44
26 49 100 55 88 8 97 7 92 -5z m479 -4 c30 -4 57 -10 59 -15 3 -4 -5 -32 -18
-61 -101 -227 -150 -544 -128 -819 13 -164 25 -232 62 -373 16 -60 28 -110 27
-112 -3 -2 -150 26 -155 30 -5 4 -55 186 -64 231 -19 97 -39 291 -39 385 0
180 38 416 92 568 44 125 76 185 94 178 9 -3 40 -9 70 -12z m-697 -79 c-106
-276 -127 -657 -54 -970 13 -55 31 -119 39 -142 8 -24 12 -43 8 -43 -4 0 -40
8 -81 18 -84 21 -81 17 -122 172 -71 272 -62 675 21 910 47 135 36 126 157
129 l61 1 -29 -75z m1903 49 c43 -14 78 -29 78 -34 0 -4 -12 -28 -26 -54 -21
-38 -29 -44 -44 -36 -10 5 -54 20 -99 33 l-81 23 30 47 c17 27 37 47 47 47 10
0 53 -12 95 -26z m-2089 -51 c-107 -292 -113 -757 -13 -1047 11 -33 19 -60 18
-61 -2 -1 -39 9 -84 23 l-81 24 -21 67 c-50 157 -78 384 -68 553 13 213 76
491 114 501 9 3 49 5 89 6 l71 1 -25 -67z m1077 52 c30 -3 67 -8 82 -11 l28
-6 -19 -36 c-29 -58 -71 -179 -93 -272 -35 -149 -48 -260 -48 -437 0 -222 16
-351 67 -537 13 -48 22 -90 20 -93 -5 -4 -154 22 -190 33 -10 3 -23 17 -28 32
-76 199 -110 590 -75 849 24 173 73 347 128 456 16 33 23 38 46 33 15 -3 52
-8 82 -11z m-2354 -12 c-46 -154 -55 -518 -17 -686 12 -53 31 -122 41 -152
l19 -55 -73 0 -74 0 -20 48 c-29 66 -59 189 -73 290 -14 103 -6 394 13 492
l13 65 80 6 c44 3 84 6 88 7 5 1 6 -6 3 -15z m184 10 c0 -5 -9 -51 -20 -103
-26 -122 -37 -391 -21 -517 6 -50 22 -135 36 -188 14 -52 25 -96 25 -98 0 -1
-33 -1 -74 1 l-75 4 -20 61 c-74 223 -86 498 -35 763 7 42 14 78 14 80 0 2 38
4 85 4 47 0 85 -3 85 -7z m179 -30 c-70 -289 -71 -590 -2 -831 8 -30 13 -55
11 -57 -1 -1 -35 -1 -75 2 -81 6 -79 4 -108 118 -42 160 -55 376 -35 545 11
88 39 239 47 253 2 4 42 7 88 7 l83 0 -9 -37z m191 29 c0 -4 -5 -23 -10 -42
-72 -245 -78 -572 -15 -814 13 -50 23 -91 22 -92 -6 -5 -150 25 -156 32 -13
15 -42 132 -57 228 -16 109 -18 334 -3 443 5 43 19 117 30 166 l21 87 84 0
c46 0 84 -3 84 -8z m351 -64 c-80 -244 -87 -620 -17 -888 8 -30 18 -63 21 -73
5 -12 3 -16 -6 -13 -8 3 -46 14 -85 25 l-71 21 -21 72 c-37 131 -46 216 -46
408 1 191 14 308 52 440 l19 65 84 5 c46 3 86 4 88 3 1 -1 -6 -30 -18 -65z
m188 15 c-99 -284 -103 -735 -9 -1001 21 -61 33 -58 -88 -18 l-67 23 -23 79
c-78 270 -66 702 27 947 10 27 12 27 95 27 l85 0 -20 -57z m-369 -5 c-41 -124
-55 -245 -55 -463 0 -212 13 -318 52 -429 7 -22 12 -40 11 -42 -3 -2 -161 36
-165 39 -6 6 -43 164 -53 227 -16 96 -16 362 -1 465 7 44 21 119 33 168 l20
87 87 0 88 0 -17 -52z m-914 15 c-19 -95 -27 -183 -27 -326 -1 -209 20 -342
76 -479 l24 -58 -73 0 -72 0 -27 58 c-58 124 -83 240 -93 432 -6 103 8 338 23
375 6 18 25 22 106 24 l69 1 -6 -27z m2804 11 c44 -4 80 -8 80 -9 0 -2 -18
-47 -40 -101 -76 -190 -109 -357 -117 -595 -8 -232 20 -467 77 -652 13 -41 15
-57 6 -54 -6 3 -56 13 -109 23 l-97 18 -20 64 c-124 400 -101 913 56 1263 26
57 29 60 56 55 16 -3 64 -9 108 -12z m-2994 -31 c-3 -21 -9 -121 -12 -223 -5
-152 -3 -204 11 -290 18 -108 53 -227 86 -291 l18 -37 -31 -6 c-73 -14 -96 -8
-124 33 -40 62 -82 174 -105 285 -17 79 -22 137 -22 271 -1 94 3 196 7 227 8
64 5 62 130 66 l48 2 -6 -37z m-180 5 c-4 -13 -9 -93 -12 -178 -12 -286 31
-485 143 -675 19 -32 105 -115 119 -115 4 0 -7 16 -26 35 l-34 35 62 0 c58 0
65 -2 92 -32 16 -18 30 -36 30 -40 0 -4 -45 -7 -100 -7 -54 0 -103 -2 -108 -5
-5 -3 -24 27 -42 67 -18 39 -64 135 -102 212 -96 196 -123 303 -122 490 0 77
3 161 8 188 l7 47 46 0 c42 0 45 -2 39 -22z m4213 -44 c8 -7 -44 -104 -54
-100 -5 2 -49 16 -97 31 -49 15 -88 31 -88 36 0 11 28 68 41 85 7 8 36 3 102
-19 50 -16 94 -31 96 -33z m-806 40 c37 -4 70 -10 72 -14 3 -4 -11 -47 -31
-94 -138 -344 -160 -792 -59 -1196 13 -52 27 -103 30 -112 6 -15 2 -16 -27 -8
-18 5 -68 16 -110 25 l-78 17 -19 66 c-119 403 -103 861 41 1231 l40 103 37
-6 c20 -3 67 -8 104 -12z m204 -30 c54 -8 99 -17 101 -19 2 -2 -12 -43 -32
-92 -43 -109 -69 -203 -97 -358 -29 -157 -32 -452 -6 -625 19 -120 62 -312 78
-342 12 -23 16 -23 -112 8 l-106 25 -27 98 c-81 304 -93 663 -30 956 30 139
109 365 129 365 3 0 49 -7 102 -16z m733 -40 c41 -9 78 -20 83 -23 13 -12 -32
-101 -51 -101 -9 1 -55 11 -102 24 -92 25 -92 24 -62 89 13 29 21 36 37 33 11
-3 54 -13 95 -22z m-500 -11 c25 -9 55 -19 67 -24 l23 -8 -30 -81 c-90 -245
-132 -542 -111 -798 17 -206 59 -439 95 -523 6 -14 -5 -14 -101 4 -59 11 -110
21 -112 23 -1 1 -14 40 -27 86 -30 106 -60 288 -74 448 -24 263 32 621 131
838 28 63 29 64 61 57 18 -4 53 -14 78 -22z m720 -38 c47 -10 87 -19 89 -21 8
-7 -34 -104 -46 -104 -17 0 -196 40 -201 45 -8 8 50 106 61 102 7 -2 50 -12
97 -22z m-509 -36 l98 -31 -20 -51 c-31 -79 -77 -268 -94 -388 -19 -140 -19
-377 0 -544 18 -146 50 -313 71 -364 l14 -34 -42 7 c-24 3 -73 11 -110 17
l-66 12 -21 66 c-93 303 -107 742 -32 1055 30 123 86 286 98 286 3 0 50 -14
104 -31z m739 -15 c47 -10 86 -18 88 -19 2 -2 -37 -96 -43 -103 -2 -2 -46 6
-99 17 -53 12 -98 21 -101 21 -10 0 -4 26 15 68 15 33 24 42 37 38 10 -3 56
-13 103 -22z m-515 -49 c50 -12 89 -27 88 -32 0 -4 -15 -55 -32 -113 -60 -207
-75 -322 -75 -560 0 -235 18 -414 59 -575 12 -49 22 -91 20 -93 -5 -6 -191 21
-202 30 -6 5 -23 58 -37 117 -44 183 -60 327 -60 551 -1 236 12 333 71 544 32
114 50 156 66 155 6 0 53 -11 102 -24z m698 15 c40 -6 86 -13 103 -16 l32 -5
-20 -52 c-11 -28 -21 -53 -23 -55 -3 -3 -208 28 -213 33 -4 4 39 105 45 105 2
0 37 -5 76 -10z m290 -36 c42 -4 77 -7 77 -8 0 0 -9 -23 -19 -51 -13 -36 -25
-51 -40 -53 -22 -4 -191 15 -198 21 -2 2 7 27 19 56 20 50 23 52 52 47 17 -3
66 -8 109 -12z m-772 -29 c46 -9 88 -20 92 -25 5 -4 0 -36 -11 -71 -53 -171
-92 -424 -92 -594 0 -179 43 -534 76 -628 l14 -39 -33 5 c-17 3 -62 9 -98 12
-36 4 -71 10 -76 14 -26 16 -65 211 -89 446 -18 179 -15 343 11 515 27 178 88
395 109 387 7 -3 50 -13 97 -22z m1047 -2 c35 -6 36 -8 6 -80 l-14 -33 -58 6
c-31 4 -80 9 -108 13 l-52 6 20 54 20 54 77 -7 c42 -4 91 -9 109 -13z m156
-18 c54 -7 100 -16 102 -18 5 -5 -25 -87 -35 -99 -7 -8 -197 15 -207 25 -6 6
28 107 36 107 3 0 49 -7 104 -15z m-963 -32 c72 -14 89 -20 86 -33 -77 -267
-101 -423 -101 -650 1 -218 33 -506 70 -623 6 -19 3 -20 -77 -13 -127 11 -127
11 -144 70 -8 28 -21 92 -29 141 -62 379 -53 679 30 993 34 127 41 145 59 138
8 -3 56 -13 106 -23z m1195 1 c45 -3 87 -9 93 -13 7 -5 5 -23 -7 -59 -16 -50
-18 -53 -47 -48 -16 3 -60 8 -96 11 -92 10 -94 12 -73 74 13 36 23 50 34 46 8
-2 52 -7 96 -11z m232 -25 c53 -6 98 -13 100 -14 2 -2 -4 -26 -14 -54 -13 -40
-21 -51 -38 -51 -30 0 -188 19 -192 23 -7 6 30 107 39 107 5 0 52 -5 105 -11z
m-1195 -20 c71 -11 86 -16 82 -29 -43 -137 -88 -398 -100 -570 -9 -140 25
-532 58 -657 16 -62 25 -59 -113 -40 l-85 12 -17 69 c-23 92 -36 188 -53 396
-22 259 0 482 76 761 19 72 24 80 43 75 11 -3 60 -11 109 -17z m235 -28 c40
-5 75 -11 78 -14 3 -2 -6 -49 -20 -103 -51 -198 -90 -503 -80 -629 2 -22 8
-107 14 -190 11 -145 32 -305 46 -354 6 -20 4 -22 -12 -18 -10 3 -50 8 -89 12
-38 3 -78 8 -87 11 -29 9 -52 115 -73 349 -31 335 -13 574 65 864 25 93 16 88
158 72z m242 -27 c36 -3 68 -8 72 -10 3 -2 0 -25 -8 -51 -50 -165 -94 -457
-94 -629 0 -143 16 -377 36 -508 7 -55 12 -101 10 -103 -2 -2 -43 1 -92 7 -49
5 -94 10 -100 10 -15 0 -40 132 -56 290 -16 164 -16 503 0 605 24 150 74 374
89 398 3 5 21 6 42 3 20 -3 65 -8 101 -12z m216 -26 c78 -9 94 -14 90 -27 -45
-153 -94 -430 -102 -585 -10 -160 18 -590 42 -669 5 -17 0 -18 -78 -12 -109 8
-125 12 -132 30 -19 51 -56 443 -56 600 0 145 50 471 95 623 18 59 9 57 141
40z m229 -29 c50 -6 91 -12 92 -13 1 -1 -9 -48 -22 -104 -63 -264 -89 -498
-80 -702 9 -199 25 -422 32 -444 5 -18 1 -19 -97 -13 -57 4 -104 8 -106 10
-20 20 -47 360 -47 582 0 202 32 433 90 638 18 65 9 62 138 46z m248 -28 c38
-5 71 -11 73 -14 2 -2 -7 -51 -20 -108 -74 -317 -91 -517 -73 -849 8 -140 11
-258 7 -263 -3 -4 -49 -10 -102 -14 l-95 -6 -7 39 c-3 21 -11 122 -16 224 -5
102 -12 210 -16 240 -11 105 29 439 76 630 10 41 21 87 24 103 6 24 11 27 44
27 20 -1 68 -5 105 -9z m-5648 -418 l25 -38 -60 -3 c-56 -3 -61 -1 -89 30
l-30 33 32 6 c77 15 95 11 122 -28z m158 -7 l24 -43 -66 4 c-59 4 -69 8 -93
36 -16 17 -28 35 -28 39 0 4 31 8 69 8 l69 0 25 -44z m160 -2 c10 -19 17 -37
17 -39 0 -3 -31 -5 -68 -5 l-68 0 -22 39 c-12 21 -22 40 -22 42 0 2 33 3 73 1
73 -3 74 -4 90 -38z m107 21 c41 -5 47 -9 62 -45 19 -46 20 -45 -78 -34 -47 6
-54 10 -73 44 -27 49 -27 52 12 46 17 -3 52 -8 77 -11z m138 -19 c40 -8 76
-17 79 -20 3 -3 14 -24 25 -47 15 -34 15 -40 3 -35 -8 3 -45 11 -80 17 -62 11
-67 13 -85 50 -19 36 -23 49 -17 49 1 0 35 -6 75 -14z m222 -46 c29 -8 40 -19
58 -55 24 -49 20 -53 -34 -35 -16 5 -47 14 -70 19 -32 9 -44 18 -57 46 -9 20
-17 40 -17 44 0 8 41 2 120 -19z m146 -42 c72 -20 75 -23 94 -66 11 -25 19
-46 17 -48 -1 -2 -39 8 -83 22 -75 24 -81 28 -95 62 -8 20 -15 40 -17 45 -5
10 2 9 84 -15z m284 -127 c11 -24 19 -46 16 -48 -3 -3 -40 7 -83 21 -75 25
-80 29 -101 71 -12 25 -22 47 -22 49 0 2 38 -8 84 -23 81 -25 85 -28 106 -70z
m120 -1 c31 -8 44 -20 64 -56 14 -26 26 -48 26 -49 0 -3 -162 43 -165 47 -5 6
-45 88 -45 92 0 3 18 -1 41 -9 22 -8 58 -19 79 -25z m148 -38 c71 -17 74 -19
93 -61 10 -24 19 -44 19 -46 0 -1 -35 6 -78 17 -77 19 -79 21 -100 64 -12 24
-18 44 -14 44 4 0 40 -8 80 -18z m183 -42 c64 -13 67 -15 88 -57 11 -24 21
-45 21 -47 0 -4 -34 3 -122 25 -30 8 -42 18 -58 49 -23 46 -25 54 -7 48 6 -3
42 -11 78 -18z m182 -40 c52 -10 59 -15 77 -50 24 -48 25 -53 3 -46 -10 2 -44
10 -76 16 -52 10 -59 15 -77 50 -24 48 -25 53 -2 46 9 -2 43 -10 75 -16z m250
-84 c10 -21 16 -40 14 -42 -2 -3 -36 1 -74 7 -69 11 -70 12 -92 56 -11 24 -21
45 -21 47 0 1 35 -5 78 -14 74 -16 78 -18 95 -54z m82 19 c67 -10 75 -15 95
-57 11 -23 19 -42 17 -43 -1 -2 -36 4 -78 13 -71 13 -78 17 -93 49 -21 43 -20
56 2 50 9 -3 35 -8 57 -12z m244 -46 c60 -11 64 -13 81 -52 11 -23 18 -43 16
-44 -2 -3 -208 36 -212 40 -2 3 -34 79 -34 82 0 1 19 -1 43 -6 23 -5 71 -13
106 -20z m186 -34 c44 -9 87 -18 96 -20 14 -5 49 -64 49 -83 0 -8 -205 30
-215 39 -2 3 -11 22 -20 42 -18 44 -21 43 90 22z m265 -55 c72 -15 76 -18 99
-59 13 -23 21 -44 19 -46 -2 -2 -53 8 -112 23 l-109 27 -18 42 -18 42 32 -6
c18 -4 66 -14 107 -23z m339 -118 l22 -44 -23 5 c-13 2 -62 13 -109 23 -87 18
-87 18 -108 61 -12 24 -21 45 -21 47 0 1 49 -9 109 -22 l109 -25 21 -45z m132
17 l77 -12 21 -45 22 -45 -28 6 c-15 3 -63 11 -106 18 -76 12 -79 13 -98 50
-25 49 -24 52 9 46 15 -3 61 -11 103 -18z m-3309 -21 l70 -11 -6 -60 c-3 -33
-6 -84 -6 -113 l0 -54 -80 0 -80 0 0 88 c0 100 9 162 22 162 5 0 41 -5 80 -12z
m3539 -18 l76 -12 22 -45 c19 -40 20 -44 4 -40 -10 3 -58 11 -106 18 -88 12
-88 13 -108 50 -25 49 -24 53 9 46 15 -3 61 -11 103 -17z m-3297 -22 c1 -2 0
-47 -2 -100 l-3 -98 -80 0 -79 0 0 108 c0 60 2 111 5 114 4 4 157 -19 159 -24z
m3509 -8 c43 -5 80 -10 83 -10 4 0 44 -76 44 -83 0 -2 -21 -1 -47 4 -27 4 -73
10 -104 14 -54 6 -56 7 -77 51 l-22 44 23 -5 c12 -2 57 -9 100 -15z m-3400 -5
c76 -8 73 -2 61 -124 l-7 -61 -78 0 -79 0 0 48 c0 83 12 153 25 148 6 -2 42
-7 78 -11z m3637 -25 c41 -6 75 -12 75 -13 1 -1 11 -19 23 -39 l21 -38 -22 0
c-12 0 -59 5 -105 12 -82 11 -83 12 -103 49 -24 49 -24 49 9 44 15 -3 61 -9
102 -15z m-3440 -6 l52 -7 -6 -36 c-3 -20 -6 -53 -6 -73 l0 -38 -86 0 -86 0 7
68 c10 100 12 105 45 99 15 -3 51 -9 80 -13z m3671 -20 c64 -6 67 -8 85 -43
10 -20 20 -38 21 -41 2 -3 -43 -1 -99 5 l-103 10 -24 44 -24 44 39 -6 c21 -3
69 -9 105 -13z m-3481 -13 c38 -8 37 -4 25 -94 -6 -44 -9 -48 -28 -43 -12 4
-48 10 -81 13 l-58 6 6 51 c3 28 6 59 6 69 0 16 6 17 48 12 26 -4 63 -10 82
-14z m3773 -23 c2 -1 11 -20 20 -42 l18 -38 -58 6 c-142 16 -144 17 -164 50
-31 52 -28 53 82 40 55 -7 101 -14 102 -16z m-3632 0 l71 -12 -6 -45 c-3 -24
-6 -59 -6 -78 0 -39 5 -39 -107 -7 l-53 15 0 47 c0 55 9 92 21 92 5 0 41 -5
80 -12z m3771 -13 l78 -7 25 -45 25 -45 -33 5 c-17 4 -65 9 -105 13 -72 7 -73
7 -92 45 -25 48 -25 52 3 46 12 -3 57 -9 99 -12z m-3564 -22 c41 -6 44 -8 39
-32 -3 -14 -9 -54 -13 -88 -3 -35 -11 -63 -17 -63 -6 0 -42 10 -80 22 l-69 23
6 50 c3 27 6 63 6 79 0 28 1 28 43 22 23 -4 62 -10 85 -13z m3832 -9 c28 -4
39 -13 57 -46 l23 -41 -63 7 c-148 16 -146 15 -168 58 l-21 41 69 -7 c37 -4
84 -9 103 -12z m-3708 -14 c29 -6 62 -13 74 -15 20 -4 20 -6 6 -102 -8 -54
-16 -99 -17 -100 -1 -2 -36 9 -78 23 -46 15 -77 31 -77 39 0 39 24 165 31 165
4 0 32 -5 61 -10z m3936 -6 c25 -4 35 -12 47 -41 8 -19 15 -37 15 -39 0 -5
-112 4 -167 12 -31 5 -63 42 -63 74 0 11 76 8 168 -6z m477 -30 c3 -20 4 -38
1 -41 -3 -3 -46 -8 -95 -11 l-90 -5 -11 27 c-19 52 -16 55 73 59 45 1 89 4 98
5 12 1 19 -9 24 -34z m-217 -7 c7 -18 12 -36 12 -40 0 -4 -43 -7 -95 -7 l-94
0 -16 30 c-8 16 -15 34 -15 40 0 6 36 10 98 10 l98 0 12 -33z m-3994 4 c33 -6
61 -13 63 -15 4 -3 -13 -148 -23 -202 l-4 -22 -77 26 c-43 14 -79 26 -80 26
-3 2 16 146 23 179 4 20 10 26 22 23 10 -3 44 -10 76 -15z m239 -67 c-2 -10
-8 -64 -15 -119 -6 -55 -12 -101 -14 -103 -3 -5 -138 40 -148 49 -9 8 8 201
19 218 2 4 39 0 82 -9 66 -14 78 -20 76 -36z m121 -4 l58 -12 -5 -36 c-3 -21
-11 -77 -18 -127 -7 -49 -13 -92 -15 -94 -1 -1 -37 7 -78 19 -86 26 -84 21
-66 140 21 137 19 132 43 127 12 -3 48 -11 81 -17z m-1706 -60 c1 -19 9 -80
17 -134 9 -54 14 -100 12 -102 -2 -2 -33 -1 -69 3 -65 6 -66 6 -76 42 -12 40
-42 204 -42 230 0 15 8 16 78 6 l77 -11 3 -34z m1872 24 c64 -15 71 -19 66
-38 -2 -11 -10 -59 -16 -106 -7 -47 -15 -99 -18 -116 l-7 -30 -78 24 -78 23 6
47 c12 91 26 187 30 200 5 15 8 15 95 -4z m-1707 -11 c4 -2 7 -23 7 -47 0 -24
5 -80 11 -125 6 -45 9 -85 6 -87 -3 -3 -35 -3 -71 1 -44 5 -67 12 -71 22 -7
19 -35 205 -35 234 0 19 4 20 73 13 39 -3 75 -9 80 -11z m168 -19 c3 -2 9 -56
13 -120 4 -64 10 -123 13 -130 4 -12 -8 -13 -68 -8 -41 4 -75 8 -76 9 -6 4
-22 106 -28 183 l-7 83 73 -7 c41 -3 77 -8 80 -10z m1712 -9 c33 -7 61 -16 64
-19 3 -3 -2 -50 -11 -104 -9 -54 -16 -114 -16 -134 0 -20 -3 -39 -7 -41 -12
-7 -158 39 -158 49 1 29 17 158 27 207 12 64 11 64 101 42z m-1550 -11 c14 -4
17 -18 18 -77 0 -40 4 -99 8 -132 5 -33 7 -61 6 -63 -1 -1 -36 3 -77 9 l-76
12 -11 99 c-6 54 -11 115 -11 134 l0 36 63 -7 c34 -3 70 -9 80 -11z m128 -19
l56 -7 7 -91 c3 -49 6 -113 6 -142 l0 -52 -62 15 c-35 8 -68 16 -75 17 -13 4
-19 46 -28 184 l-6 93 23 -5 c13 -3 48 -9 79 -12z m1619 -16 c85 -20 91 -23
86 -43 -3 -11 -13 -84 -23 -161 l-17 -141 -98 40 c-96 39 -98 41 -98 73 0 33
27 217 35 241 6 16 8 16 115 -9z m-1429 -20 l46 -10 -4 -47 c-2 -26 0 -91 4
-144 5 -60 5 -98 -1 -98 -5 0 -39 9 -77 20 l-68 21 -5 42 c-3 23 -7 86 -9 140
l-4 99 36 -7 c20 -4 57 -11 82 -16z m1636 -30 c48 -11 89 -22 91 -24 1 -1 -4
-58 -13 -126 -8 -68 -15 -151 -15 -185 0 -33 -2 -63 -5 -66 -4 -4 -184 82
-203 97 -4 3 17 193 29 263 6 34 15 62 19 62 5 0 48 -9 97 -21z m-1488 -10
c34 -12 64 -26 66 -33 2 -6 5 -76 7 -156 l3 -146 -75 33 c-54 23 -77 39 -82
55 -3 13 -6 78 -7 146 -1 94 2 122 12 122 7 0 41 -10 76 -21z m1711 -40 l91
-21 -6 -31 c-12 -74 -25 -199 -31 -304 l-7 -112 -100 50 -100 51 7 111 c6 101
22 231 32 265 5 16 7 16 114 -9z m-1577 -28 c23 -15 56 -35 73 -44 l31 -16 7
-150 c3 -83 9 -165 13 -183 l6 -33 -50 48 c-28 27 -66 59 -84 73 -30 21 -35
32 -40 82 -9 73 -11 252 -3 252 3 0 24 -13 47 -29z m1790 -18 l89 -18 -7 -70
c-20 -208 -24 -268 -25 -350 l0 -91 -106 51 -106 50 7 90 c17 241 32 355 48
355 6 0 51 -8 100 -17z m209 -43 c42 -7 81 -16 88 -20 9 -6 9 -28 -1 -101 -9
-62 -14 -192 -13 -384 0 -247 3 -312 22 -436 25 -165 69 -349 105 -439 14 -33
23 -60 21 -60 -2 0 -30 17 -62 38 -32 20 -86 50 -119 66 l-62 29 -30 111 c-83
306 -109 707 -71 1074 12 117 19 144 34 139 7 -3 46 -10 88 -17z m-1797 -47
l75 -37 0 -51 c0 -27 7 -117 15 -199 8 -83 13 -152 10 -154 -2 -2 -39 23 -83
57 l-79 61 -6 73 c-13 151 -20 287 -14 287 4 0 40 -17 82 -37z m2094 -9 c20
-4 23 -9 17 -37 -19 -94 -28 -304 -23 -527 8 -329 40 -531 121 -773 25 -76
105 -242 145 -303 l20 -30 -105 21 c-120 24 -136 37 -126 107 4 36 1 42 -48
91 -34 33 -61 73 -76 109 -23 55 -74 233 -88 308 -31 158 -56 418 -56 585 0
113 26 460 35 475 4 6 72 -4 184 -26z m166 -28 c59 -11 70 -16 68 -32 -31
-306 -29 -686 6 -911 43 -283 130 -541 231 -688 18 -26 30 -48 28 -50 -4 -4
-200 33 -203 38 -1 1 -11 16 -22 32 -91 136 -172 351 -217 575 -61 301 -71
659 -30 1008 7 60 -11 56 139 28z m-2027 -70 c21 -7 22 -12 22 -109 0 -56 7
-156 15 -222 8 -65 15 -123 15 -127 0 -10 -140 83 -157 103 -14 18 -33 207
-33 326 l0 91 58 -27 c31 -16 67 -31 80 -35z m135 -59 l57 -26 0 -74 c0 -86
15 -245 34 -353 7 -41 11 -74 9 -74 -3 0 -147 94 -161 105 -9 7 -32 208 -38
328 l-7 138 24 -10 c13 -5 50 -20 82 -34z m170 -70 l57 -26 0 -53 c0 -108 35
-407 57 -488 6 -24 6 -24 -14 -10 -12 8 -51 35 -87 60 -64 45 -65 46 -76 108
-15 90 -40 327 -40 394 0 65 -9 64 103 15z m229 -158 c3 -35 11 -127 18 -204
6 -77 21 -190 34 -252 l23 -112 -27 14 c-21 11 -86 58 -139 101 -15 12 -56
312 -66 476 l-6 108 78 -34 78 -33 7 -64z m219 -56 c4 -10 8 -45 8 -78 2 -110
33 -314 78 -512 l5 -21 -64 23 c-97 35 -158 63 -158 72 0 4 -7 42 -16 83 -29
139 -44 254 -50 397 l-7 143 99 -45 c55 -25 101 -52 105 -62z m-2642 42 l20
-45 70 5 71 4 40 -59 c25 -37 36 -61 29 -65 -26 -16 -127 -17 -180 -1 -48 14
-56 21 -76 61 -13 25 -23 56 -23 69 0 22 19 76 26 76 2 0 12 -20 23 -45z
m2766 -74 l100 -40 7 -98 c9 -124 33 -276 62 -398 13 -52 20 -95 17 -95 -17 0
-175 41 -190 49 -18 10 -40 90 -66 246 -24 146 -44 375 -32 375 1 0 47 -18
102 -39z m539 -123 c13 -209 51 -446 95 -588 11 -33 18 -60 16 -60 -2 0 -44
16 -94 35 -49 19 -97 35 -105 35 -16 0 -26 28 -50 130 -38 165 -51 254 -62
402 -5 79 -4 98 7 102 8 2 39 9 69 16 30 7 66 19 80 26 14 7 28 13 31 14 4 0
9 -51 13 -112z m-333 57 c34 -9 73 -15 88 -13 26 3 26 3 32 -87 10 -130 37
-306 65 -417 13 -53 24 -98 24 -100 0 -2 -47 8 -104 22 l-105 25 -21 85 c-27
115 -57 304 -66 419 -6 86 -5 94 10 88 9 -4 44 -14 77 -22z m-2846 -45 c33 0
74 4 92 9 31 9 32 8 77 -59 51 -78 52 -77 -50 -87 -87 -8 -172 4 -192 28 -9
10 -21 19 -28 19 -30 0 -64 78 -51 114 5 13 12 13 49 -4 27 -12 65 -20 103
-20z m70 -145 c55 0 112 3 127 7 23 7 29 3 48 -27 12 -20 20 -42 17 -49 -14
-35 -187 -47 -274 -19 -59 19 -78 41 -69 79 6 21 10 24 29 17 12 -4 67 -8 122
-8z m2206 -665 c14 -4 81 -43 150 -87 422 -271 825 -458 1154 -536 168 -40
486 -77 920 -105 l250 -17 3 -77 3 -78 -77 0 -76 0 7 55 c3 30 3 60 -2 67 -5
8 -10 -13 -13 -52 l-5 -65 -40 -3 c-22 -2 -59 -1 -82 3 l-43 6 0 65 c0 35 -3
64 -8 64 -4 0 -6 -18 -4 -40 2 -22 1 -51 -2 -65 -7 -27 -32 -31 -108 -19 l-38
7 -1 71 -2 71 -8 -68 c-4 -38 -10 -71 -12 -74 -3 -2 -37 -1 -77 3 -83 8 -88
14 -73 88 6 28 9 53 7 55 -10 10 -17 -13 -21 -71 l-5 -64 -77 11 c-85 12 -83
10 -68 100 l6 40 -14 -30 c-8 -16 -14 -45 -15 -63 l0 -34 -52 7 c-29 4 -56 9
-60 12 -12 6 -10 71 2 94 7 12 7 19 1 19 -11 0 -17 -16 -27 -73 -5 -28 -10
-36 -23 -33 -9 2 -31 8 -50 11 -32 7 -33 8 -27 45 3 21 9 46 13 56 4 12 3 15
-5 10 -6 -4 -14 -28 -18 -55 l-6 -48 -52 12 c-56 13 -58 17 -43 100 6 28 5 36
-2 25 -6 -8 -14 -36 -17 -63 -5 -37 -10 -47 -23 -43 -278 79 -436 138 -621
231 -248 125 -528 336 -670 505 l-42 50 34 -6 c18 -3 45 -9 59 -14z m934 -184
l820 -164 -158 -75 c-87 -42 -175 -84 -197 -93 -22 -10 -40 -22 -40 -27 0 -4
3 -6 8 -4 4 3 45 23 92 45 47 22 137 65 201 95 l116 55 84 -18 84 -17 -157
-76 c-87 -42 -167 -78 -178 -82 -11 -3 -20 -10 -20 -15 0 -10 47 11 251 108
l125 59 82 -16 c45 -9 82 -18 82 -21 0 -3 -31 -18 -68 -35 -135 -59 -235 -109
-225 -112 5 -2 79 30 164 70 l155 74 82 -16 c45 -9 82 -18 82 -21 0 -3 -59
-32 -130 -64 -72 -32 -130 -63 -130 -67 0 -4 64 23 143 60 l144 68 81 -15 c45
-9 82 -18 82 -21 0 -3 -50 -28 -111 -56 -61 -27 -107 -51 -101 -53 5 -1 61 21
125 51 l116 53 85 -15 c47 -9 82 -18 78 -22 -4 -3 -47 -23 -96 -44 -48 -22
-84 -41 -79 -42 6 -2 55 17 109 41 l99 45 75 -15 c41 -8 80 -16 85 -18 9 -3
-4 -9 -101 -52 -20 -8 -34 -17 -32 -20 3 -2 42 11 86 30 l81 35 88 -16 88 -17
-35 -14 c-19 -8 -46 -18 -59 -23 -13 -5 -21 -12 -19 -15 3 -3 35 7 70 22 l64
26 194 -37 c185 -34 227 -45 184 -45 -10 0 -80 -4 -154 -10 -402 -28 -971 -16
-1465 31 -519 49 -712 94 -1069 251 -186 81 -526 270 -696 385 -53 36 -59 44
-35 39 17 -4 399 -80 850 -170z m459 -31 c3 -9 0 -15 -9 -15 -16 0 -27 14 -18
24 10 10 21 7 27 -9z m3872 -211 c10 -27 14 -53 9 -71 -11 -45 -76 -98 -152
-124 -171 -58 -542 -5 -799 116 -93 43 -94 44 -94 79 0 20 2 36 4 36 4 0 72
-30 181 -79 133 -61 298 -92 487 -92 147 -1 161 1 213 24 68 32 95 72 95 141
0 48 0 49 20 31 10 -9 27 -37 36 -61z m-806 -155 c171 -57 430 -96 552 -82
119 12 218 58 258 118 l18 27 6 -29 c4 -16 3 -41 -3 -55 -14 -38 -86 -94 -139
-109 -60 -18 -281 -18 -382 0 -171 29 -388 95 -492 147 -41 21 -48 29 -48 54
l0 30 70 -35 c39 -20 111 -49 160 -66z m-69 -50 c105 -38 282 -84 384 -100 44
-7 136 -12 205 -13 156 0 222 17 281 74 l41 39 -6 -31 c-21 -104 -132 -146
-356 -134 -149 7 -275 27 -425 67 -190 51 -301 99 -291 125 3 9 6 22 6 30 0
12 8 10 40 -6 23 -11 77 -34 121 -51z m-135 -58 l36 -20 -33 -9 c-42 -11 -49
-8 -49 24 0 29 1 29 46 5z m-58 -46 c-9 -8 -88 -16 -88 -8 0 4 20 20 43 34
l42 25 3 -24 c2 -13 2 -25 0 -27z m-603 9 c11 -12 15 -31 13 -68 l-3 -51 -50
-7 c-27 -4 -50 -6 -51 -5 -1 1 -4 32 -6 69 l-4 67 31 4 c16 2 35 5 42 5 6 1
19 -5 28 -14z m-111 -31 c14 -86 7 -99 -56 -108 l-48 -7 0 70 0 71 43 4 c23 2
45 4 48 5 4 1 9 -15 13 -35z m219 17 c5 -4 9 -24 10 -45 1 -42 -13 -55 -60
-55 -31 0 -31 0 -35 60 l-3 59 40 -6 c22 -3 44 -9 48 -13z m-339 -6 c3 -9 6
-39 6 -69 l0 -52 -37 -7 c-88 -14 -88 -14 -89 64 l-1 69 51 4 c28 2 54 4 57 5
4 1 10 -5 13 -14z m-712 -17 c4 -6 8 -40 8 -74 l0 -63 -82 0 -83 0 -2 81 -2
82 77 -7 c43 -3 79 -11 84 -19z m578 -46 l0 -70 -55 -6 c-31 -4 -58 -6 -60 -4
-3 4 -8 121 -6 142 1 4 28 7 61 7 l60 0 0 -69z m603 52 c4 -2 7 -15 7 -28 0
-20 -6 -25 -37 -30 -21 -4 -46 -9 -55 -12 -15 -4 -18 3 -18 42 l0 46 48 -7
c26 -3 50 -8 55 -11z m267 8 c0 -13 -97 -34 -118 -26 -15 7 27 19 111 34 4 0
7 -3 7 -8z m-1296 -23 c3 -13 6 -47 6 -75 l0 -53 -69 0 -69 0 -4 75 -3 75 66
0 c61 0 67 -2 73 -22z m166 -53 l0 -75 -75 0 -75 0 0 59 c0 33 -3 66 -6 75 -5
14 5 16 75 16 l81 0 0 -75z m124 59 c3 -9 6 -40 6 -70 l0 -54 -40 -2 c-22 -1
-47 -2 -56 -2 -12 -1 -16 13 -17 72 l-3 72 52 0 c38 0 53 -4 58 -16z m869 -8
c4 -10 -7 -16 -40 -21 -25 -4 -52 -9 -59 -12 -10 -4 -14 3 -14 21 0 25 2 26
54 26 37 0 56 -4 59 -14z"/>
<path d="M7210 12539 c-414 -19 -783 -61 -1097 -125 -175 -35 -353 -88 -340
-101 3 -3 24 2 45 10 161 65 596 142 997 177 490 42 1226 42 1680 0 611 -58
1036 -144 1618 -330 15 -5 27 -5 27 -1 0 11 -334 113 -525 160 -705 174 -1570
250 -2405 210z"/>
<path d="M7395 12394 c-498 -19 -1019 -79 -1300 -149 -55 -14 -70 -14 -149 0
-49 8 -111 15 -138 15 -41 0 -49 -3 -46 -17 2 -9 15 -20 29 -24 15 -3 300
-220 635 -480 335 -260 768 -597 962 -748 217 -168 357 -284 363 -299 9 -22
14 -24 52 -19 23 3 123 -3 222 -13 180 -19 321 -32 555 -50 69 -6 140 -13 158
-16 33 -5 33 -6 16 -25 -22 -25 -75 -39 -146 -39 -55 0 -58 -1 -58 -24 0 -22
5 -25 58 -30 31 -3 143 -8 247 -11 105 -3 226 -8 269 -11 l79 -6 -7 57 -7 58
118 -7 c146 -8 483 -9 491 -2 3 3 -57 6 -134 6 -183 0 -450 11 -463 20 -12 7
-37 117 -29 126 6 5 544 -22 611 -31 20 -3 37 -1 37 3 0 5 -98 15 -217 22
-120 6 -267 15 -327 18 l-110 7 -17 67 -17 67 57 -4 c31 -3 126 -10 211 -16
85 -5 220 -17 299 -25 78 -9 145 -13 147 -11 11 11 -206 33 -548 58 l-168 12
-20 66 c-10 36 -18 66 -17 67 2 2 178 -12 337 -26 120 -11 298 -33 388 -48 28
-5 52 -6 52 -2 0 17 -325 56 -711 86 l-76 5 -18 52 c-10 29 -20 58 -23 65 -3
8 10 12 44 12 125 0 656 -64 744 -90 19 -5 44 -10 55 -9 20 0 20 0 0 8 -58 24
-389 71 -675 96 -102 9 -185 18 -185 18 0 1 -14 30 -30 64 -16 35 -27 64 -24
66 8 7 328 -25 539 -54 124 -17 283 -47 395 -74 19 -5 26 -4 20 2 -33 33 -513
106 -895 138 l-75 6 -42 67 c-23 37 -41 68 -40 69 5 4 251 -20 437 -43 211
-26 453 -69 573 -103 37 -10 67 -15 67 -11 0 8 -146 45 -290 74 -152 31 -434
68 -665 87 -132 12 -141 14 -160 38 -11 14 -37 45 -59 69 l-39 42 35 0 c42 0
404 -36 508 -50 236 -33 456 -76 619 -120 40 -12 76 -19 78 -16 5 5 -89 33
-177 54 -251 60 -548 104 -917 136 l-162 14 -63 45 c-35 25 -85 57 -112 71
l-49 26 34 0 c101 0 506 -37 711 -65 252 -35 620 -113 753 -161 14 -5 17 -4
10 4 -21 23 -320 96 -560 137 -260 45 -464 68 -787 90 -120 8 -245 23 -280 32
-81 21 -203 24 -203 4 0 -10 -27 -13 -135 -12 -74 1 -280 -3 -457 -9 l-321
-11 -119 60 c-65 33 -109 60 -98 61 11 0 117 7 235 15 419 28 1171 17 1590
-25 384 -38 758 -106 1048 -191 57 -17 106 -28 109 -25 7 6 -132 48 -282 85
-395 97 -842 154 -1415 181 -365 17 -781 10 -1185 -21 l-150 -11 -118 51 c-65
28 -126 51 -135 51 -8 0 -13 2 -10 5 7 7 209 30 413 47 249 20 1236 17 1470
-5 495 -47 762 -87 1069 -162 124 -30 302 -80 361 -101 14 -5 17 -4 10 4 -5 6
-66 27 -133 47 -418 122 -863 194 -1467 236 -217 16 -966 16 -1195 0 -190 -13
-477 -38 -525 -47 -20 -4 -65 7 -140 35 -60 22 -122 43 -138 47 -15 3 -29 9
-32 13 -5 9 279 48 484 66 298 27 514 35 889 35 853 0 1511 -83 2139 -271 122
-36 163 -46 152 -35 -8 8 -306 95 -429 125 -750 182 -1742 244 -2680 165 -181
-15 -449 -47 -540 -64 -47 -9 -67 -6 -203 31 -84 22 -156 42 -162 43 -29 7
366 77 570 100 923 107 1978 69 2780 -100 204 -43 537 -132 670 -180 14 -5 17
-4 10 3 -16 17 -227 81 -451 137 -387 98 -782 156 -1314 196 -139 11 -786 20
-945 14z m848 -643 c23 -16 59 -46 79 -68 l37 -38 -423 0 -423 0 -109 60 -109
60 110 6 c61 3 264 6 453 7 l343 2 42 -29z m186 -186 c28 -35 51 -66 51 -68 0
-3 -165 -2 -367 0 l-368 5 -97 61 c-54 33 -98 62 -98 64 0 1 186 3 414 3 l414
0 51 -65z m81 -114 c14 -17 35 -48 47 -70 l22 -39 -316 6 -317 5 -81 59 c-44
33 -84 64 -90 70 -7 6 111 8 350 4 l360 -6 25 -29z m-34 -121 l114 0 35 -69
35 -70 -278 6 -277 5 -70 70 -70 70 199 -6 c110 -3 250 -6 312 -6z m59 -149
l130 -6 21 -45 c12 -25 24 -55 28 -68 l7 -22 -148 5 c-81 3 -197 8 -258 12
l-110 6 -42 63 -43 64 143 -1 c78 -1 200 -4 272 -8z m-33 -147 l227 -6 22 -65
c11 -35 19 -66 18 -68 -2 -2 -78 1 -169 5 -91 5 -208 9 -261 10 l-96 0 -6 48
c-4 26 -10 58 -13 71 -6 21 -5 23 22 18 16 -3 131 -9 256 -13z m164 -150 l111
-7 11 -60 c6 -34 9 -63 7 -66 -3 -2 -128 3 -277 13 -150 9 -292 16 -315 16
l-43 0 35 46 c19 25 35 53 35 61 0 16 90 16 436 -3z m-214 -129 c134 -8 267
-17 297 -21 l54 -6 -6 -51 c-4 -28 -11 -55 -17 -61 -6 -6 -78 -4 -217 8 -287
23 -653 59 -649 63 2 2 36 13 76 24 40 11 89 28 109 39 44 23 51 24 353 5z"/>
<path d="M5618 12192 c-148 -164 -332 -561 -506 -1092 -127 -389 -204 -690
-273 -1075 -18 -100 -18 -330 0 -347 12 -11 13 -10 6 7 -84 221 242 1466 555
2122 77 162 158 297 215 361 26 29 45 55 43 58 -3 2 -21 -13 -40 -34z"/>
<path d="M5667 12128 c-109 -135 -231 -394 -353 -751 -167 -490 -286 -1006
-329 -1427 -9 -89 -8 -271 1 -280 5 -5 9 57 9 143 2 631 413 2009 691 2316 20
23 32 41 26 41 -6 0 -26 -19 -45 -42z"/>
<path d="M5731 12025 c-220 -291 -537 -1301 -625 -1993 -17 -128 -22 -342 -8
-342 4 0 7 62 8 138 2 280 104 787 263 1302 138 449 259 737 374 889 26 35 46
65 43 68 -2 2 -27 -25 -55 -62z"/>
<path d="M10326 12029 c-20 -58 -116 -524 -175 -844 -112 -610 -162 -1006
-160 -1264 1 -80 4 -156 7 -169 4 -13 7 68 8 180 1 223 20 414 80 793 62 400
168 952 244 1270 8 38 6 63 -4 34z"/>
<path d="M10357 11730 c-21 -113 -47 -252 -58 -310 -153 -817 -243 -1484 -224
-1672 11 -110 20 -78 17 58 -5 204 31 513 123 1059 56 332 69 406 105 595 59
314 81 441 78 458 -2 9 -20 -75 -41 -188z"/>
<path d="M10457 11803 c-4 -3 -7 -22 -7 -42 0 -38 -36 -263 -119 -756 -120
-711 -161 -1012 -165 -1225 -2 -85 -2 -128 0 -95 19 327 53 573 209 1510 101
608 105 631 82 608z"/>
<path d="M10517 11610 c-4 -49 -11 -120 -17 -157 -23 -155 -113 -741 -140
-908 -69 -428 -107 -722 -114 -880 -5 -99 -5 -99 4 -25 6 41 17 138 25 215 22
198 38 307 146 990 89 565 126 855 108 855 -3 0 -9 -40 -12 -90z"/>
<path d="M10592 11540 c-6 -158 -48 -480 -152 -1160 -106 -689 -128 -866 -110
-855 5 3 10 23 10 44 0 54 57 465 105 756 87 528 159 1097 153 1205 l-4 65 -2
-55z"/>
<path d="M10654 11340 c-3 -197 -44 -543 -130 -1090 -39 -247 -82 -525 -104
-660 -10 -68 -17 -126 -15 -128 8 -8 13 20 55 288 22 146 54 351 70 455 66
421 111 754 130 975 12 136 13 290 3 290 -5 0 -9 -58 -9 -130z"/>
<path d="M10726 11290 c6 -77 -8 -332 -26 -500 -17 -149 -50 -409 -60 -475 -5
-33 -17 -107 -26 -165 -37 -243 -112 -661 -131 -725 -3 -13 -2 -17 5 -10 32
32 170 871 222 1350 25 230 36 527 21 570 -8 24 -9 14 -5 -45z"/>
<path d="M6340 10534 c0 -5 59 -8 137 -6 367 9 1180 -34 1826 -96 42 -5 77 -4
77 0 0 4 -6 8 -13 8 -7 0 -108 9 -223 19 -272 26 -442 38 -754 56 -318 19
-1050 32 -1050 19z"/>
<path d="M8430 10437 c-40 -13 -120 -88 -120 -113 0 -14 -7 -16 -47 -10 -445
58 -1635 113 -1958 90 -109 -7 -46 -10 400 -15 596 -8 907 -23 1375 -70 107
-10 199 -19 203 -19 7 0 0 -109 -7 -117 -1 -1 -65 4 -142 12 -498 53 -958 75
-1596 75 -280 0 -508 -3 -508 -7 0 -5 262 -8 583 -9 563 0 710 -5 1162 -39
237 -18 488 -45 496 -54 4 -3 9 -30 12 -60 l6 -54 -57 6 c-31 4 -95 11 -142
16 -130 15 -312 30 -565 47 -265 17 -1355 30 -1535 17 -74 -5 110 -8 515 -8
718 0 1147 -19 1600 -71 203 -23 187 -16 213 -86 l22 -61 -43 6 c-42 6 -274
32 -372 42 -150 15 -476 35 -740 46 -358 14 -1405 7 -1445 -10 -19 -8 7 -9
100 -4 211 11 1309 8 1530 -6 540 -31 980 -76 988 -101 2 -6 21 -33 43 -60 21
-27 39 -51 39 -53 0 -2 -80 7 -178 19 -230 29 -446 49 -757 71 -383 26 -1958
23 -1931 -4 3 -3 238 0 523 7 839 21 1534 -7 2157 -86 l200 -25 60 -48 c34
-26 82 -60 109 -75 26 -16 47 -29 47 -30 0 -2 -46 6 -102 15 -501 89 -1227
139 -1978 138 -448 0 -1155 -21 -1167 -33 -4 -5 55 -6 132 -2 291 14 1091 26
1350 21 486 -11 931 -40 1305 -86 210 -26 526 -76 548 -88 24 -12 181 -51 209
-51 16 0 23 6 23 20 0 11 -7 20 -15 20 -19 0 -439 836 -430 858 14 38 -42 52
-115 29z"/>
<path d="M6230 9519 c-536 -11 -1509 -46 -1519 -55 -7 -7 102 -4 514 11 1109
40 1778 47 2120 20 509 -40 1142 -119 1475 -185 52 -10 145 -23 205 -29 61 -6
223 -23 360 -36 138 -14 268 -30 290 -35 50 -12 77 -12 47 1 -46 18 -153 31
-557 69 -116 11 -249 27 -295 35 -346 63 -498 85 -935 135 -681 78 -879 86
-1705 69z"/>
<path d="M5895 9335 c-412 -13 -581 -22 -573 -31 3 -2 207 4 454 13 577 20
1713 24 1899 5 219 -22 669 -72 690 -76 11 -3 92 -14 180 -26 88 -12 228 -34
310 -50 83 -16 218 -36 300 -45 385 -40 494 -55 518 -67 10 -5 17 -5 17 0 0
20 -135 40 -555 82 -60 6 -177 24 -260 40 -155 30 -487 77 -730 105 -532 60
-478 58 -1170 60 -388 2 -823 -2 -1080 -10z"/>
<path d="M9891 9166 c-11 -45 -59 -196 -156 -496 -187 -576 -275 -868 -274
-908 0 -16 6 -4 15 31 23 97 131 443 284 912 127 388 162 505 150 505 -4 0
-13 -20 -19 -44z"/>
<path d="M6805 9180 c-558 -11 -875 -21 -875 -30 0 -4 30 -6 68 -4 452 26
1577 31 1867 9 393 -30 915 -98 1155 -150 36 -8 164 -26 285 -40 220 -25 294
-36 328 -50 9 -4 17 -3 17 2 0 16 -93 32 -325 59 -121 14 -274 36 -340 49
-254 49 -582 94 -995 135 -133 13 -562 30 -700 28 -58 -1 -276 -5 -485 -8z"/>
<path d="M9980 9146 c0 -20 -82 -290 -200 -661 -211 -664 -244 -775 -231 -775
3 0 15 31 25 70 10 38 30 109 46 157 15 49 51 162 80 253 29 91 69 219 90 285
148 459 214 685 199 685 -5 0 -9 -6 -9 -14z"/>
<path d="M10061 9083 c-6 -21 -24 -87 -41 -148 -28 -96 -50 -172 -130 -430
-40 -132 -122 -391 -130 -415 -39 -110 -131 -413 -126 -417 3 -3 8 0 10 8 3 8
18 57 34 109 17 52 62 194 100 315 181 563 309 1001 298 1012 -2 3 -9 -12 -15
-34z"/>
<path d="M10137 9004 c-35 -150 -228 -787 -353 -1163 -35 -107 -63 -196 -60
-198 6 -6 57 141 154 447 88 277 107 338 191 620 55 185 93 338 88 353 -2 7
-11 -20 -20 -59z"/>
<path d="M6893 9011 c-189 -4 -345 -9 -347 -12 -3 -2 338 -4 757 -4 559 0 795
-3 887 -13 433 -45 666 -77 895 -122 83 -16 222 -39 310 -51 88 -12 170 -25
184 -30 13 -5 26 -7 29 -5 12 12 -67 30 -258 56 -113 16 -248 38 -300 49 -183
39 -521 84 -875 116 -206 19 -800 26 -1282 16z"/>
<path d="M10196 8862 c-81 -328 -322 -1104 -378 -1214 -10 -21 -14 -38 -9 -38
13 0 44 79 115 292 147 441 326 1073 314 1107 -1 6 -20 -61 -42 -147z"/>
<path d="M10297 8883 c-19 -97 -73 -305 -117 -453 -107 -360 -153 -506 -217
-680 -25 -69 -52 -136 -60 -148 -8 -13 -12 -26 -9 -29 16 -16 114 246 215 572
123 399 233 825 212 825 -4 0 -14 -39 -24 -87z"/>
<path d="M10390 8886 c0 -44 -113 -490 -179 -707 -95 -312 -199 -600 -222
-615 -5 -3 -9 -13 -9 -22 0 -30 39 40 79 145 123 316 298 923 345 1196 4 23 3
37 -4 37 -5 0 -10 -15 -10 -34z"/>
<path d="M7150 8843 c0 -5 240 -9 533 -9 553 -2 691 -9 1053 -54 166 -21 374
-54 434 -70 19 -5 109 -22 200 -39 91 -16 174 -33 184 -37 13 -5 17 -4 12 4
-7 12 -48 21 -226 52 -63 12 -155 29 -205 40 -223 48 -597 93 -910 110 -211
11 -1075 13 -1075 3z"/>
<path d="M7764 8682 c5 -9 82 -12 274 -12 529 0 961 -44 1312 -134 74 -19 146
-37 160 -41 l25 -6 -25 14 c-34 20 -288 81 -440 106 -286 47 -564 68 -1004 78
-234 5 -307 3 -302 -5z"/>
<path d="M8440 8519 c41 -4 149 -13 240 -19 211 -15 521 -54 630 -80 46 -12
104 -32 127 -45 24 -13 43 -20 43 -14 0 15 -73 47 -156 68 -138 35 -433 72
-724 91 -176 12 -273 11 -160 -1z"/>
<path d="M2195 7813 c-287 -66 -650 -366 -864 -716 -184 -300 -375 -869 -445
-1327 -26 -168 -27 -177 -17 -160 5 8 14 56 21 105 64 474 278 1108 477 1415
141 216 304 383 506 517 100 67 245 136 310 148 21 4 37 11 37 16 0 5 -1 8 -2
8 -2 -1 -12 -3 -23 -6z"/>
<path d="M1063 7353 c-213 -319 -331 -594 -433 -1008 -80 -324 -119 -624 -124
-950 -2 -126 -2 -185 0 -130 26 765 170 1393 425 1849 68 121 133 224 191 304
21 28 34 52 29 52 -6 0 -45 -53 -88 -117z"/>
<path d="M1325 7870 c-284 -140 -449 -287 -634 -565 -262 -395 -476 -1014
-571 -1645 -31 -213 -43 -471 -37 -835 7 -421 36 -700 113 -1085 67 -335 113
-490 261 -875 141 -366 384 -937 390 -918 2 5 -22 64 -52 132 -130 290 -358
860 -441 1104 -126 371 -221 892 -254 1395 -19 289 -9 760 21 992 83 644 307
1314 576 1722 135 206 263 340 433 453 89 60 291 165 317 165 6 0 15 5 18 10
13 21 -24 8 -140 -50z"/>
<path d="M1290 7789 c-421 -317 -704 -742 -839 -1264 -104 -400 -171 -778
-212 -1200 -17 -171 -17 -706 -1 -850 43 -372 142 -840 263 -1240 60 -199 143
-447 147 -437 2 6 -24 93 -57 194 -176 535 -305 1109 -340 1513 -50 568 19
1254 195 1949 122 484 293 795 614 1116 106 106 280 251 347 288 10 6 15 13
12 17 -4 3 -62 -35 -129 -86z"/>
<path d="M9338 7486 c-364 -126 -644 -422 -842 -889 -88 -206 -225 -644 -299
-957 -84 -347 -165 -825 -227 -1330 -111 -910 -133 -2002 -55 -2805 44 -456
138 -1065 161 -1042 3 2 -5 46 -16 96 -55 247 -112 694 -156 1226 -13 156 -17
323 -17 755 -1 825 36 1369 139 2090 101 706 201 1150 379 1685 218 653 515
1018 943 1159 77 26 99 37 70 35 -7 0 -43 -11 -80 -23z"/>
<path d="M9370 7270 c-102 -35 -177 -84 -260 -170 -78 -80 -213 -266 -269
-370 -116 -217 -294 -761 -445 -1365 -55 -220 -112 -540 -175 -980 -60 -420
-85 -735 -117 -1460 -20 -470 -15 -834 15 -1085 37 -302 186 -1308 195 -1318
10 -9 8 9 -68 516 -72 479 -100 686 -128 932 -33 289 6 1450 67 2035 15 139
59 474 75 565 5 30 19 114 30 185 43 272 99 543 157 755 162 597 287 978 386
1175 69 139 221 350 311 433 121 111 256 167 410 171 115 2 181 -12 281 -58
120 -57 231 -145 430 -342 98 -98 181 -177 183 -175 7 7 -252 268 -343 346
-221 189 -338 241 -542 239 -95 -1 -124 -5 -193 -29z"/>
<path d="M9290 6900 c0 -19 -44 -194 -130 -515 -67 -248 -93 -409 -89 -546 3
-78 8 -122 17 -131 10 -10 11 -6 5 22 -12 54 -8 257 6 335 20 108 58 264 107
444 70 256 74 272 88 344 8 37 10 67 5 67 -5 0 -9 -9 -9 -20z"/>
<path d="M9367 6828 c-8 -60 -30 -149 -117 -468 -98 -358 -134 -564 -111 -635
7 -24 9 -11 10 63 1 135 39 312 152 710 27 95 56 210 64 255 9 45 18 92 21
105 2 12 0 22 -4 22 -5 0 -12 -24 -15 -52z"/>
<path d="M9450 6801 c0 -58 -32 -190 -130 -536 -110 -387 -148 -565 -121 -565
6 0 11 19 11 48 0 65 35 211 124 517 110 382 153 575 127 575 -6 0 -11 -17
-11 -39z"/>
<path d="M9531 6717 c-16 -116 -59 -278 -157 -592 -102 -324 -127 -412 -121
-428 3 -7 8 2 12 18 12 49 51 183 83 285 137 433 188 622 198 730 4 39 5 70 2
70 -3 0 -10 -37 -17 -83z"/>
<path d="M10445 6528 c-42 -223 -58 -300 -87 -418 -108 -442 -279 -716 -588
-945 -214 -158 -820 -548 -1229 -790 -145 -86 -175 -118 -205 -211 -19 -57
-36 -174 -26 -174 4 0 10 26 14 58 10 85 43 175 79 215 18 20 88 69 157 108
186 108 654 402 909 572 342 227 456 318 565 447 86 103 120 154 181 278 93
187 158 407 225 762 17 91 33 171 35 178 2 6 1 12 -4 12 -4 0 -16 -42 -26 -92z"/>
<path d="M10511 6558 c-6 -29 -22 -114 -37 -188 -123 -647 -292 -967 -655
-1240 -209 -157 -830 -558 -1234 -797 -157 -93 -181 -119 -204 -218 -24 -104
-63 -645 -81 -1130 -6 -154 -14 -356 -18 -450 -16 -373 13 -742 128 -1595 44
-327 47 -343 58 -336 5 3 -4 90 -19 195 -82 568 -137 1073 -146 1346 l-6 200
36 28 c36 28 53 34 42 17 -3 -5 -1 -93 5 -197 10 -183 9 -187 -11 -209 -22
-23 -19 -44 6 -44 19 0 21 -12 39 -225 16 -177 16 -180 -4 -207 -11 -15 -20
-32 -20 -37 0 -17 20 -23 34 -11 11 9 15 3 21 -32 18 -120 116 -642 120 -646
9 -10 5 20 -44 291 -27 150 -54 303 -61 340 l-11 68 52 65 c29 35 54 62 56 60
2 -2 8 -28 13 -57 27 -164 100 -542 104 -547 10 -9 7 9 -49 318 -30 166 -52
307 -48 313 4 7 28 38 55 70 52 63 47 65 63 -23 3 -19 20 -109 36 -200 17 -91
33 -182 36 -203 3 -21 10 -40 15 -43 6 -4 8 5 4 22 -3 16 -26 139 -51 273
l-44 245 52 62 c29 35 55 63 60 63 4 1 7 -11 7 -25 0 -14 4 -44 10 -67 5 -23
21 -109 35 -192 15 -82 31 -154 37 -160 6 -7 7 0 3 20 -13 63 -17 82 -49 268
-40 229 -42 240 -61 431 l-15 149 55 58 54 57 5 -42 c38 -336 100 -716 116
-716 4 0 -4 57 -17 128 -48 259 -60 340 -82 557 l-10 90 52 53 c28 28 54 52
58 52 3 0 9 -42 12 -92 10 -148 86 -596 95 -557 1 9 -10 88 -27 175 -29 155
-44 258 -59 416 -7 69 -6 79 11 97 20 19 16 41 -7 41 -15 0 -26 82 -26 191 l0
67 49 41 c27 23 52 41 55 41 3 0 6 -26 6 -57 1 -173 65 -674 100 -778 l10 -30
-4 35 c-3 19 -16 99 -30 178 -27 154 -51 366 -61 553 l-6 116 55 42 c53 40 56
41 56 18 0 -49 20 -295 30 -367 22 -156 54 -325 63 -335 6 -6 7 1 4 20 -42
209 -69 428 -81 643 l-3 74 50 40 c51 40 51 40 58 17 3 -13 9 -76 13 -139 7
-131 53 -420 68 -435 7 -7 8 -3 5 10 -26 96 -67 425 -67 537 l0 74 50 37 c27
20 51 37 53 37 2 0 7 -51 11 -112 7 -120 44 -358 56 -358 4 0 1 33 -7 73 -18
95 -43 309 -43 369 0 45 2 49 53 87 l52 40 11 -107 c14 -129 31 -232 40 -241
4 -3 4 14 0 39 -18 130 -36 277 -35 300 0 18 15 37 54 67 l53 43 6 -38 c3 -20
8 -64 11 -96 4 -33 11 -69 16 -80 6 -15 7 -7 3 24 -3 25 -9 80 -13 124 l-7 78
51 39 c29 22 55 39 58 39 4 0 7 -18 7 -39 0 -22 4 -42 9 -46 6 -3 7 16 4 48
-5 53 -5 55 31 83 39 31 48 64 17 64 -10 0 -24 -7 -31 -15 -20 -24 -29 -17
-33 28 -3 41 -4 41 -5 -9 -2 -49 -4 -53 -54 -92 l-53 -41 -6 47 -6 47 -2 -55
c-2 -54 -3 -56 -57 -98 l-54 -43 -2 53 -1 53 -6 -58 c-6 -55 -8 -60 -56 -97
l-50 -40 -5 53 c-4 42 -6 47 -12 27 -4 -14 -8 -41 -8 -62 0 -31 -7 -42 -49
-77 -27 -23 -52 -41 -55 -41 -3 0 -3 25 0 57 5 41 4 54 -4 49 -7 -4 -12 -32
-12 -64 l0 -57 -57 -44 -56 -45 6 57 c3 33 2 57 -4 57 -5 0 -9 -27 -9 -60 l0
-60 -52 -41 c-58 -46 -63 -43 -56 32 2 21 0 39 -4 39 -5 0 -8 -28 -8 -63 l0
-62 -55 -43 -54 -42 -4 67 -3 68 -2 -72 -2 -71 -52 -42 -53 -42 -5 63 -5 64
-8 -75 c-9 -74 -9 -75 -57 -112 -26 -21 -51 -38 -54 -38 -3 0 -3 30 -1 68 3
47 2 58 -4 37 -5 -16 -9 -51 -10 -76 -1 -48 1 -45 -100 -123 -12 -9 -13 0 -7
64 5 52 4 70 -4 60 -5 -8 -10 -44 -11 -80 l0 -65 -56 -44 -56 -43 5 76 c3 42
1 76 -4 76 -4 0 -8 -35 -8 -78 l0 -79 -42 -33 c-24 -18 -49 -38 -56 -44 -11
-8 -13 4 -10 67 1 42 0 77 -4 77 -5 0 -8 -29 -8 -64 0 -81 -10 -108 -51 -137
l-32 -23 7 220 c8 265 21 545 41 879 30 506 48 639 96 706 10 15 79 62 151
105 412 242 1018 633 1243 803 367 275 527 583 660 1261 20 102 38 195 41 208
2 12 0 22 -5 22 -5 0 -14 -24 -20 -52z m-1519 -3805 l4 -128 -50 -53 -51 -53
-7 38 c-4 21 -7 86 -7 145 l-1 106 48 36 c26 19 50 36 53 36 4 0 9 -57 11
-127z m-121 -151 l3 -103 -49 -49 c-61 -61 -60 -62 -68 120 l-6 135 52 41 52
41 6 -41 c4 -22 8 -87 10 -144z m-123 -142 l2 -85 -51 -53 c-28 -29 -53 -52
-54 -50 -1 2 -6 78 -10 169 l-7 167 53 40 54 41 6 -72 c4 -40 7 -110 7 -157z
m-124 -35 l6 -170 -49 -55 c-28 -30 -52 -52 -55 -49 -3 3 -8 86 -11 185 l-6
179 53 41 c29 23 54 41 54 40 1 0 4 -77 8 -171z m-167 -353 l-52 -53 -6 63
c-4 35 -7 124 -8 200 l-1 136 53 42 52 42 7 -189 7 -188 -52 -53z m317 82 c8
-82 18 -168 22 -192 6 -38 5 -42 -11 -36 -13 5 -29 -6 -61 -42 -35 -39 -43
-45 -44 -28 0 11 -7 94 -16 184 l-15 163 52 53 c29 30 54 52 56 50 2 -1 9 -70
17 -152z m-119 -151 l17 -183 -48 -57 c-27 -32 -50 -60 -51 -62 -9 -12 -14 22
-30 192 l-17 187 54 55 c30 30 55 53 56 52 1 -1 10 -84 19 -184z m-122 -134
l17 -191 -52 -65 -53 -65 -6 43 c-4 24 -13 117 -20 207 l-13 163 49 49 c27 28
52 50 55 50 4 0 14 -86 23 -191z"/>
<path d="M10232 5930 c-34 -125 -100 -251 -204 -393 -27 -38 -47 -71 -45 -74
5 -5 72 87 129 177 54 85 104 188 127 265 12 39 24 78 27 88 3 9 2 17 -3 17
-4 0 -18 -36 -31 -80z"/>
<path d="M10606 5909 c-3 -13 -10 -73 -15 -134 -6 -60 -29 -290 -51 -510 -108
-1059 -104 -1023 -95 -1013 3 3 17 115 31 249 125 1227 144 1422 139 1427 -2
3 -6 -6 -9 -19z"/>
<path d="M10440 5453 c-23 -98 -45 -184 -47 -190 -3 -7 -1 -13 4 -13 6 0 17
33 26 73 9 39 29 125 45 190 16 64 26 117 22 117 -3 0 -26 -80 -50 -177z"/>
<path d="M10276 5223 c-13 -112 -16 -169 -6 -140 10 34 25 187 17 187 -3 0 -8
-21 -11 -47z"/>
<path d="M8720 5133 c0 -5 53 -21 118 -35 64 -14 126 -29 136 -34 13 -5 17 -4
13 3 -4 6 -57 23 -119 38 -62 14 -121 29 -130 31 -10 3 -18 1 -18 -3z"/>
<path d="M10110 5043 c0 -27 -2 -79 -5 -118 -4 -52 -3 -62 4 -40 12 38 19 205
9 205 -5 0 -8 -21 -8 -47z"/>
<path d="M8602 5055 c5 -5 121 -34 198 -50 20 -4 22 -3 9 5 -16 9 -178 50
-201 50 -6 0 -9 -2 -6 -5z"/>
<path d="M9988 4850 c2 -80 6 -147 8 -149 8 -9 3 215 -5 254 -5 24 -7 -18 -3
-105z"/>
<path d="M8495 4975 c36 -14 165 -42 165 -36 0 8 -135 42 -160 40 -8 0 -10 -2
-5 -4z"/>
<path d="M9867 4757 l6 -154 -54 -37 -54 -36 -3 137 c-1 76 -6 141 -11 146 -4
4 -6 -59 -4 -141 l4 -149 -56 -42 -55 -42 -2 148 -2 148 -5 -152 c-3 -83 -8
-153 -11 -155 -3 -2 -26 -21 -52 -42 l-48 -37 -2 148 -1 148 -7 -154 c-7 -169
0 -151 -82 -212 l-28 -20 -2 148 -1 148 -8 -159 c-6 -134 -10 -162 -24 -172
-10 -7 -32 -27 -51 -43 -18 -17 -35 -31 -37 -31 -2 0 -2 15 0 33 7 87 9 287 3
287 -4 0 -9 -75 -12 -166 l-5 -166 -49 -49 c-52 -53 -64 -59 -59 -31 8 41 13
322 6 322 -4 0 -11 -82 -14 -181 l-5 -182 -57 -56 -56 -56 5 55 c11 107 18
335 11 328 -4 -4 -12 -94 -17 -199 l-8 -191 -52 -63 c-29 -35 -54 -62 -55 -61
-2 2 1 77 7 167 5 90 9 189 9 219 -2 53 -2 52 -10 -20 -4 -41 -11 -145 -14
-231 l-7 -157 -55 -73 -55 -74 7 135 c18 341 20 380 13 380 -5 0 -8 -17 -8
-37 0 -127 -31 -517 -41 -529 -7 -8 -32 -52 -55 -97 -24 -45 -44 -76 -44 -69
0 24 29 515 35 582 4 41 3 61 -3 55 -5 -5 -17 -156 -26 -335 -16 -305 -19
-331 -46 -420 -16 -52 -34 -122 -40 -154 -13 -76 -13 -197 0 -231 11 -30 33
-29 38 1 4 30 1647 1885 1688 1907 34 18 45 42 22 50 -16 5 -213 -93 -343
-172 l-100 -60 -5 144 c-3 79 -9 147 -12 151 -4 3 -4 -63 -1 -149z"/>
<path d="M10402 3928 c-44 -554 -107 -871 -228 -1127 -24 -52 -58 -116 -75
-144 -16 -27 -28 -51 -26 -53 8 -8 65 88 110 186 122 260 182 549 227 1080 5
69 13 146 16 173 3 26 2 47 -3 47 -5 0 -15 -73 -21 -162z"/>
<path d="M8566 3898 c-11 -99 -57 -871 -54 -912 4 -50 11 36 38 474 11 179 23
362 26 408 7 91 0 112 -10 30z"/>
<path d="M8447 3790 c-8 -89 -32 -445 -47 -690 -6 -96 -12 -203 -15 -237 -2
-35 -1 -63 4 -63 5 0 11 66 15 148 7 135 17 292 47 729 11 164 8 251 -4 113z"/>
<path d="M5435 6052 c6 -5 91 -17 190 -26 229 -22 512 -54 975 -110 356 -44
573 -67 578 -61 8 8 -19 13 -143 25 -113 11 -312 34 -695 80 -260 31 -410 48
-625 70 -110 11 -220 22 -245 26 -29 3 -41 2 -35 -4z"/>
<path d="M5175 6011 c11 -5 54 -12 95 -15 376 -35 586 -60 1015 -121 415 -59
622 -85 670 -84 l40 1 -45 8 c-25 4 -94 13 -155 19 -60 7 -282 37 -491 67
-376 53 -560 76 -943 114 -215 22 -214 22 -186 11z"/>
<path d="M4900 5971 c14 -5 63 -11 110 -15 115 -9 455 -44 560 -57 47 -6 220
-32 385 -59 558 -92 900 -137 840 -111 -11 4 -56 11 -100 15 -109 10 -304 38
-665 97 -464 75 -515 82 -925 119 -227 21 -243 22 -205 11z"/>
<path d="M4612 5934 c3 -3 124 -16 269 -29 432 -40 536 -55 1009 -145 233 -44
498 -85 625 -95 44 -4 88 -9 98 -11 9 -3 17 -1 17 4 0 5 -39 12 -87 16 -140
12 -456 61 -740 115 -420 81 -479 89 -1058 141 -120 11 -140 12 -133 4z"/>
<path d="M4340 5897 c3 -3 131 -17 285 -32 370 -34 559 -59 735 -95 532 -112
659 -135 915 -166 125 -14 182 -18 173 -9 -2 3 -51 10 -109 15 -239 24 -441
59 -829 141 -129 28 -273 57 -320 64 -197 32 -863 96 -850 82z"/>
<path d="M4071 5855 c3 -2 113 -13 244 -25 505 -43 599 -56 935 -135 387 -91
596 -130 825 -154 55 -6 122 -13 148 -16 29 -4 46 -2 43 3 -3 5 -47 12 -98 16
-210 15 -528 71 -843 146 -401 96 -469 107 -980 150 -242 21 -281 23 -274 15z"/>
<path d="M3100 5760 c0 -6 53 -10 138 -10 420 0 1179 -76 1451 -145 220 -55
357 -82 566 -110 66 -8 135 -18 153 -21 17 -3 32 -1 32 3 0 5 -51 15 -112 22
-156 17 -460 74 -625 115 -267 67 -727 119 -1308 146 -261 12 -295 12 -295 0z"/>
<path d="M2935 5659 c765 -33 1086 -61 1334 -115 155 -33 377 -70 536 -89 72
-8 145 -17 163 -20 17 -3 32 -2 32 2 0 5 -69 16 -152 26 -169 19 -368 51 -588
96 -283 58 -975 113 -1360 109 l-145 -1 180 -8z"/>
<path d="M2465 5571 c33 -5 201 -11 374 -15 472 -10 815 -35 1051 -76 151 -26
370 -56 500 -69 58 -6 120 -14 138 -17 17 -2 32 -1 32 3 0 5 -55 14 -122 21
-168 17 -402 49 -528 72 -201 36 -379 52 -750 69 -296 14 -769 22 -695 12z"/>
<path d="M2540 5470 c529 -9 754 -21 958 -49 75 -11 232 -29 347 -40 116 -12
225 -24 243 -26 17 -3 32 -2 32 2 0 5 -105 19 -232 32 -128 12 -294 31 -368
41 -240 34 -375 41 -920 44 l-535 4 475 -8z"/>
<path d="M1950 5390 c-118 -3 55 -6 385 -5 507 0 624 -3 755 -17 85 -10 238
-25 340 -33 102 -8 200 -18 218 -20 17 -3 32 -2 32 2 0 7 -253 33 -730 74
-102 9 -650 8 -1000 -1z"/>
<path d="M2273 5328 c-335 -9 -885 -36 -892 -44 -7 -8 259 2 514 18 280 18
801 16 1065 -5 124 -10 237 -20 253 -23 15 -3 27 -1 27 4 0 10 -29 12 -385 36
-314 22 -320 22 -582 14z"/>
<path d="M1975 5274 c-33 -3 -132 -11 -220 -20 -239 -22 -476 -43 -605 -53
-113 -8 -113 -8 -35 -10 44 0 202 10 350 24 498 47 622 53 891 44 236 -7 321
-13 407 -25 20 -3 37 -2 37 3 0 21 -641 49 -825 37z"/>
<path d="M1695 5224 c-115 -9 -338 -36 -445 -54 -232 -38 -403 -60 -475 -60
-43 0 -75 -4 -75 -10 0 -5 12 -10 28 -10 51 0 277 29 507 64 390 59 589 72
878 57 109 -6 209 -14 223 -17 13 -3 24 -2 24 4 0 5 -33 12 -72 16 -92 8 -526
15 -593 10z"/>
<path d="M3594 5006 c-56 -38 -134 -108 -134 -118 0 -6 19 7 43 28 33 32 83
71 126 101 2 2 2 5 0 7 -2 2 -18 -6 -35 -18z"/>
<path d="M920 3383 c216 -22 461 -73 1660 -343 565 -127 1141 -235 1475 -275
295 -35 513 -70 905 -145 85 -16 225 -38 310 -50 455 -59 535 -71 621 -90 472
-106 948 -115 1035 -19 22 25 9 25 -23 0 -13 -11 -58 -28 -100 -37 -154 -34
-586 -5 -853 57 -104 24 -263 49 -570 89 -259 33 -272 35 -510 80 -271 52
-564 98 -750 120 -407 48 -913 142 -1595 296 -1215 274 -1466 325 -1585 322
-36 -1 -43 -2 -20 -5z"/>
<path d="M1023 3269 c228 -36 505 -95 1417 -302 790 -180 1173 -251 1735 -322
204 -25 411 -59 705 -115 245 -46 252 -47 560 -85 157 -20 339 -47 405 -61
503 -106 875 -122 1065 -48 52 20 100 51 100 65 0 5 -18 -4 -40 -20 -22 -16
-77 -39 -122 -52 -171 -48 -573 -24 -943 56 -148 32 -200 40 -485 75 -235 29
-422 59 -635 101 -187 37 -450 78 -690 108 -490 62 -1004 160 -1785 340 -855
197 -1269 282 -1365 280 -23 -1 11 -9 78 -20z"/>
</g>
</svg>
